# This file uses centimeters as units for non-parametric coordinates.

mtllib grass_tuft_1.mtl
g default
v -8.005341 4.027328 -5.622635
v -6.776329 4.910843 -2.973469
v -4.539707 3.263542 -0.558704
v -1.598513 0.686454 0.000000
v -8.378212 2.707367 -8.378212
v -5.048721 4.293449 -5.048721
v -2.723038 3.145264 -2.723038
v 0.000000 0.000000 -0.000000
v -5.622635 4.027328 -8.005341
v -2.973469 4.910843 -6.776329
v -0.558704 3.263542 -4.539707
v 0.000000 0.686454 -1.598513
v -5.622635 4.027328 8.005341
v -2.973469 4.910843 6.776329
v -0.558704 3.263542 4.539707
v -0.000000 0.686454 1.598513
v -8.378212 2.707367 8.378212
v -5.048721 4.293449 5.048721
v -2.723038 3.145264 2.723038
v -8.005341 4.027328 5.622635
v -6.776329 4.910843 2.973469
v -4.539707 3.263542 0.558704
v 5.622635 4.027328 -8.005341
v 2.973469 4.910843 -6.776329
v 0.558704 3.263542 -4.539707
v 8.378212 2.707367 -8.378212
v 5.048721 4.293449 -5.048721
v 2.723038 3.145264 -2.723038
v 8.005341 4.027328 -5.622635
v 6.776329 4.910843 -2.973469
v 4.539707 3.263542 -0.558704
v 1.598513 0.686454 0.000000
v 8.005341 4.027328 5.622635
v 6.776329 4.910843 2.973469
v 4.539707 3.263542 0.558704
v 8.378212 2.707367 8.378212
v 5.048721 4.293449 5.048721
v 2.723038 3.145264 2.723038
v 5.622635 4.027328 8.005341
v 2.973469 4.910843 6.776329
v 0.558704 3.263542 4.539707
v -3.116425 2.045795 0.101472
v -1.424181 1.781843 1.424181
v -0.101472 2.045795 3.116425
v -0.101472 2.045795 -3.116425
v -1.424181 1.781843 -1.424181
v -3.116425 2.045795 -0.101472
v 0.101472 2.045795 -3.116425
v 1.322374 1.861977 -1.322374
v 3.116425 2.045795 -0.101472
v 3.116425 2.045795 0.101472
v 1.424181 1.781843 1.424181
v 0.101472 2.045795 3.116425
v 15.337891 2.730263 8.096649
v 14.161438 3.052727 2.604237
v 10.705566 2.451485 0.136341
v 14.407089 1.220732 14.407089
v 8.681755 1.799623 8.681755
v 4.682510 1.198387 4.682510
v 0.000000 -0.000000 0.000000
v 8.096649 2.730263 15.337891
v 2.604240 3.052727 14.161438
v -0.000000 2.451485 10.432877
v -15.337891 2.730263 -8.096649
v -14.161438 3.052727 -2.604237
v -10.705566 2.451485 0.136340
v -14.407089 1.220732 -14.407089
v -8.681755 1.799623 -8.681755
v -4.682510 1.198387 -4.682510
v -8.096649 2.730263 -15.337891
v -2.604240 3.052727 -14.161438
v 0.000000 2.451485 -10.569214
v 8.096649 2.730263 -15.337891
v 2.604237 3.052727 -14.161438
v 14.407089 1.220732 -14.407089
v 8.681755 1.799623 -8.681755
v 4.682510 1.198387 -4.682510
v 15.337891 2.730263 -8.096649
v 14.161438 3.052727 -2.604240
v -8.096649 2.730263 15.337891
v -2.604237 3.052727 14.161438
v -14.407089 1.220732 14.407089
v -8.681755 1.799623 8.681755
v -4.682510 1.198387 4.682510
v -15.337891 2.730263 8.096649
v -14.161438 3.052727 2.604240
v 2.519215 3.355614 14.408737
v 4.020733 4.077023 10.308365
v 4.209080 2.731956 5.390503
v 3.259003 0.870395 3.259003
v 0.000000 2.277832 17.716400
v 0.000000 3.572906 10.675949
v 0.000000 2.227837 5.758080
v 0.000000 -0.000000 -0.000000
v -2.519215 3.355614 14.408737
v -4.020733 4.077023 10.308365
v -4.209080 2.731956 5.390503
v -3.259003 0.870395 3.259003
v -14.408737 3.355614 2.519215
v -10.308365 4.077023 4.020733
v -5.390503 2.731956 4.209080
v -17.716400 2.277832 0.000000
v -10.675949 3.572906 0.000000
v -5.758080 2.227837 0.000000
v -14.408737 3.355614 -2.519215
v -10.308365 4.077023 -4.020733
v -5.390503 2.731956 -4.209080
v -3.259003 0.870395 -3.259003
v -2.519215 3.355614 -14.408737
v -4.020733 4.077023 -10.308365
v -4.209080 2.731956 -5.390503
v 0.000000 2.277832 -17.716400
v 0.000000 3.572906 -10.675949
v 0.000000 2.227837 -5.758080
v 2.519215 3.355614 -14.408737
v 4.020733 4.077023 -10.308365
v 4.209080 2.731956 -5.390503
v 3.259003 0.870395 -3.259003
v 14.408737 3.355614 -2.519215
v 10.308365 4.077023 -4.020733
v 5.390503 2.731956 -4.209080
v 17.716400 2.277832 -0.000000
v 10.675949 3.572906 -0.000000
v 5.758080 2.227837 -0.000000
v 14.408737 3.355614 2.519215
v 10.308365 4.077023 4.020733
v 5.390503 2.731956 4.209080
vt 0.528342 0.874393
vt 0.427064 0.913260
vt 0.433503 0.809698
vt 0.621162 0.810255
vt 0.292923 0.914695
vt 0.301269 0.809307
vt 0.214789 0.809050
vt 0.227793 0.888006
vt 0.162435 0.851556
vt 0.114283 0.808759
vt 0.427678 0.706101
vt 0.528724 0.745568
vt 0.293548 0.703870
vt 0.161664 0.852183
vt 0.228261 0.730172
vt 0.528261 0.874680
vt 0.426935 0.913423
vt 0.433502 0.809870
vt 0.621159 0.810656
vt 0.292793 0.914694
vt 0.301268 0.809316
vt 0.214788 0.808954
vt 0.227696 0.887926
vt 0.162382 0.851396
vt 0.427803 0.706265
vt 0.528801 0.745856
vt 0.293676 0.703871
vt 0.228357 0.730093
vt 0.528472 0.874633
vt 0.427132 0.913425
vt 0.433710 0.809838
vt 0.621355 0.810578
vt 0.292916 0.914693
vt 0.301542 0.809317
vt 0.227774 0.887890
vt 0.212518 0.808966
vt 0.427949 0.706202
vt 0.528980 0.745792
vt 0.293747 0.703876
vt 0.228396 0.730164
vt 0.528345 0.874384
vt 0.427068 0.913255
vt 0.433504 0.809693
vt 0.621162 0.810243
vt 0.292927 0.914695
vt 0.301269 0.809306
vt 0.227796 0.888009
vt 0.214789 0.809053
vt 0.427674 0.706096
vt 0.528722 0.745559
vt 0.293544 0.703870
vt 0.228258 0.730175
vt 0.162436 0.851560
vt 0.654923 0.164476
vt 0.630934 0.278656
vt 0.514531 0.150204
vt 0.634489 0.030241
vt 0.558013 0.329527
vt 0.430532 0.234189
vt 0.332345 0.332373
vt 0.430533 0.430559
vt 0.386083 0.033792
vt 0.500257 0.009808
vt 0.332349 0.112255
vt 0.234161 0.234186
vt 0.009766 0.500279
vt 0.033743 0.386098
vt 0.150163 0.514544
vt 0.030207 0.634511
vt 0.106677 0.329518
vt 0.234153 0.430556
vt 0.278615 0.630953
vt 0.164440 0.654940
vt 0.332341 0.555258
vt 0.500238 0.654946
vt 0.386064 0.630955
vt 0.514521 0.514550
vt 0.634472 0.634522
vt 0.630945 0.386109
vt 0.654918 0.500290
vt 0.164445 0.009801
vt 0.278618 0.033790
vt 0.150166 0.150197
vt 0.030212 0.030231
vt 0.033757 0.278645
vt 0.009772 0.164464
vt 0.725532 0.569661
vt 0.668781 0.418617
vt 0.819775 0.429249
vt 0.819874 0.697283
vt 0.660482 0.231666
vt 0.819704 0.237116
vt 0.698530 0.129329
vt 0.820060 0.005976
vt 0.970761 0.418506
vt 0.914121 0.569592
vt 0.978923 0.231549
vt 0.698557 0.129297
vt 0.725442 0.569637
vt 0.668731 0.418577
vt 0.819722 0.429251
vt 0.819749 0.697285
vt 0.660482 0.231624
vt 0.819703 0.237117
vt 0.970711 0.418548
vt 0.914030 0.569618
vt 0.978923 0.231593
vt 0.698557 0.129297
vt 0.725442 0.569637
vt 0.668731 0.418577
vt 0.819722 0.429251
vt 0.819749 0.697285
vt 0.660482 0.231624
vt 0.819703 0.237117
vt 0.970711 0.418548
vt 0.914030 0.569618
vt 0.978923 0.231593
vt 0.698730 0.129101
vt 0.724873 0.569486
vt 0.668417 0.418331
vt 0.819390 0.429258
vt 0.818965 0.697292
vt 0.660482 0.231364
vt 0.819694 0.237125
vt 0.970396 0.418809
vt 0.913461 0.569784
vt 0.978923 0.231868
vt 0.114283 0.808533
vt 0.114283 0.808752
vt 0.114088 0.808578
vt 0.162006 0.765349
vt 0.162686 0.766240
vt 0.162688 0.766235
vt 0.162739 0.766075
vt 0.819620 0.005967
vt 0.819680 0.005968
vt 0.819680 0.005968
vt 0.940827 0.129273
vt 0.940828 0.129273
vt 0.940800 0.129240
vt 0.941000 0.129485
vn -0.010693 0.927051 -0.374783
vn 0.256602 0.966023 -0.030902
vn 0.057616 0.996675 0.057616
vn -0.199462 0.959391 -0.199461
vn 0.417688 0.877230 0.236651
vn 0.333463 0.881819 0.333463
vn 0.473085 0.743224 0.473085
vn 0.473158 0.763179 0.440090
vn 0.432809 0.688193 0.582294
vn 0.510411 0.692070 0.510411
vn -0.030902 0.966023 0.256602
vn -0.374783 0.927051 -0.010693
vn 0.236651 0.877230 0.417688
vn 0.582294 0.688193 0.432809
vn 0.440090 0.763179 0.473158
vn -0.374783 0.927051 0.010693
vn -0.030902 0.966023 -0.256602
vn 0.057616 0.996675 -0.057616
vn -0.199462 0.959391 0.199461
vn 0.236651 0.877230 -0.417688
vn 0.333463 0.881819 -0.333463
vn 0.473085 0.743224 -0.473085
vn 0.440090 0.763179 -0.473158
vn 0.582294 0.688193 -0.432809
vn 0.510411 0.692070 -0.510411
vn 0.256602 0.966023 0.030902
vn -0.010693 0.927051 0.374783
vn 0.417688 0.877230 -0.236651
vn 0.432809 0.688193 -0.582294
vn 0.473158 0.763179 -0.440090
vn 0.374783 0.927051 -0.010693
vn 0.030902 0.966023 0.256602
vn -0.057616 0.996675 0.057616
vn 0.199462 0.959391 -0.199461
vn -0.237946 0.882293 0.406128
vn -0.327407 0.886346 0.327407
vn -0.457985 0.773374 0.438340
vn -0.476461 0.738898 0.476461
vn -0.256602 0.966023 -0.030902
vn 0.010693 0.927051 -0.374783
vn -0.406128 0.882294 0.237946
vn -0.438340 0.773374 0.457985
vn 0.010693 0.927051 0.374783
vn -0.256602 0.966023 0.030902
vn -0.057616 0.996675 -0.057616
vn 0.199462 0.959391 0.199461
vn -0.417688 0.877230 -0.236651
vn -0.333463 0.881819 -0.333463
vn -0.473158 0.763179 -0.440090
vn -0.473085 0.743224 -0.473085
vn 0.030902 0.966023 -0.256602
vn 0.374783 0.927051 0.010693
vn -0.236651 0.877230 -0.417688
vn -0.440090 0.763179 -0.473158
vn -0.654152 0.641892 0.400074
vn -0.535832 0.652509 0.535832
vn -0.400075 0.641892 0.654152
vn -0.432809 0.688193 -0.582294
vn -0.510411 0.692070 -0.510411
vn -0.582294 0.688193 -0.432809
vn -0.123450 0.980216 0.154715
vn -0.160798 0.983658 0.081001
vn -0.027526 0.999175 -0.029874
vn 0.015944 0.999746 0.015944
vn -0.197341 0.980335 0.000443
vn -0.098648 0.990062 -0.100225
vn -0.000000 1.000000 0.000000
vn -0.099327 0.990081 0.099368
vn 0.083828 0.983503 -0.160297
vn 0.154715 0.980216 -0.123450
vn -0.000000 0.980173 -0.198143
vn 0.098648 0.990062 -0.100225
vn 0.123450 0.980216 -0.154715
vn 0.161931 0.983684 -0.078385
vn 0.029661 0.999120 0.029661
vn -0.015944 0.999746 -0.015944
vn 0.197342 0.980335 0.000443
vn 0.099327 0.990081 0.099368
vn -0.081769 0.983589 0.160831
vn -0.154715 0.980216 0.123450
vn 0.000000 0.980256 0.197731
vn 0.154715 0.980216 0.123450
vn 0.081769 0.983589 0.160831
vn -0.029661 0.999120 0.029661
vn 0.015944 0.999746 -0.015944
vn -0.161931 0.983684 -0.078385
vn -0.123450 0.980216 -0.154715
vn -0.154715 0.980216 -0.123450
vn -0.083828 0.983503 -0.160296
vn 0.027526 0.999175 -0.029874
vn -0.015944 0.999746 0.015944
vn 0.160798 0.983658 0.081001
vn 0.123450 0.980216 0.154715
vn -0.148084 0.976468 0.156782
vn -0.146156 0.982268 -0.117425
vn 0.000000 0.997800 -0.066296
vn 0.000000 0.987354 0.158530
vn -0.081174 0.935986 -0.342552
vn 0.000000 0.936920 -0.349545
vn 0.015472 0.886955 -0.461598
vn 0.000000 0.887061 -0.461653
vn 0.146156 0.982268 -0.117425
vn 0.148084 0.976468 0.156782
vn 0.081174 0.935986 -0.342552
vn -0.015472 0.886955 -0.461598
vn -0.156782 0.976468 -0.148084
vn 0.117425 0.982268 -0.146156
vn 0.066296 0.997800 0.000000
vn -0.158530 0.987354 0.000000
vn 0.342552 0.935986 -0.081174
vn 0.349545 0.936920 0.000000
vn 0.461597 0.886955 0.015472
vn 0.461653 0.887061 0.000000
vn 0.117425 0.982268 0.146156
vn -0.156782 0.976468 0.148084
vn 0.342552 0.935986 0.081174
vn 0.461597 0.886955 -0.015472
vn 0.148084 0.976468 -0.156782
vn 0.146156 0.982268 0.117425
vn -0.000000 0.997800 0.066296
vn 0.000000 0.987354 -0.158530
vn 0.081174 0.935986 0.342552
vn -0.000000 0.936920 0.349545
vn -0.015472 0.886955 0.461598
vn -0.000000 0.887061 0.461653
vn -0.146156 0.982268 0.117425
vn -0.148084 0.976468 -0.156782
vn -0.081174 0.935986 0.342552
vn 0.015472 0.886955 0.461598
vn 0.156782 0.976468 0.148084
vn -0.117425 0.982268 0.146156
vn -0.066296 0.997800 -0.000000
vn 0.158530 0.987354 -0.000000
vn -0.342552 0.935986 0.081174
vn -0.349545 0.936920 -0.000000
vn -0.461597 0.886955 -0.015472
vn -0.461653 0.887061 0.000000
vn -0.117425 0.982268 -0.146156
vn 0.156782 0.976468 -0.148084
vn -0.342552 0.935986 -0.081174
vn -0.461597 0.886955 0.015472
s 1
g grass_tuft
usemtl lambert2SG
f 1/1/1 2/2/2 6/3/3 5/4/4
f 2/2/2 3/5/5 7/6/6 6/3/3
f 46/7/7 47/8/8 4/9/9 8/129/10
f 5/4/4 6/3/3 10/11/11 9/12/12
f 6/3/3 7/6/6 11/13/13 10/11/11
f 12/133/14 45/15/15 46/7/7 8/129/10
s 2
f 13/16/16 14/17/17 18/18/18 17/19/19
f 14/17/17 15/20/20 19/21/21 18/18/18
f 43/22/22 44/23/23 16/24/24 8/128/25
f 17/19/19 18/18/18 21/25/26 20/26/27
f 18/18/18 19/21/21 22/27/28 21/25/26
f 4/134/29 42/28/30 43/22/22 8/128/25
s 3
f 23/29/31 24/30/32 27/31/33 26/32/34
f 24/30/32 25/33/35 28/34/36 27/31/33
f 25/33/35 48/35/37 49/36/38 28/34/36
f 26/32/34 27/31/33 30/37/39 29/38/40
f 27/31/33 28/34/36 31/39/41 30/37/39
f 28/34/36 49/36/38 50/40/42 31/39/41
s 4
f 33/41/43 34/42/44 37/43/45 36/44/46
f 34/42/44 35/45/47 38/46/48 37/43/45
f 35/45/47 51/47/49 52/48/50 38/46/48
f 36/44/46 37/43/45 40/49/51 39/50/52
f 37/43/45 38/46/48 41/51/53 40/49/51
f 38/46/48 52/48/50 53/52/54 41/51/53
s 2
f 43/22/22 42/28/30 22/27/28 19/21/21
f 19/21/21 15/20/20 44/23/23 43/22/22
s 1
f 46/7/7 45/15/15 11/13/13 7/6/6
f 7/6/6 3/5/5 47/8/8 46/7/7
s 3
f 49/36/38 48/35/37 12/14/55 8/130/56
f 50/40/42 49/36/38 8/130/56 32/131/57
s 4
f 52/48/50 51/47/49 32/53/58 8/10/59
f 53/52/54 52/48/50 8/10/59 16/132/60
s 5
f 54/54/61 55/55/62 58/56/63 57/57/64
f 55/55/62 56/58/65 59/59/66 58/56/63
f 60/60/67 59/59/66 56/58/65 77/61/68
f 57/57/64 58/56/63 62/62/69 61/63/70
f 58/56/63 59/59/66 63/64/71 62/62/69
f 63/64/71 59/59/66 60/60/67 84/65/72
f 64/66/73 65/67/74 68/68/75 67/69/76
f 65/67/74 66/70/77 69/71/78 68/68/75
f 60/60/67 69/71/78 66/70/77 84/65/72
f 67/69/76 68/68/75 71/72/79 70/73/80
f 68/68/75 69/71/78 72/74/81 71/72/79
f 72/74/81 69/71/78 60/60/67 77/61/68
f 73/75/82 74/76/83 76/77/84 75/78/85
f 74/76/83 72/74/81 77/61/68 76/77/84
f 75/78/85 76/77/84 79/79/86 78/80/87
f 76/77/84 77/61/68 56/58/65 79/79/86
f 80/81/88 81/82/89 83/83/90 82/84/91
f 81/82/89 63/64/71 84/65/72 83/83/90
f 82/84/91 83/83/90 86/85/92 85/86/93
f 83/83/90 84/65/72 66/70/77 86/85/92
s 7
f 87/87/94 88/88/95 92/89/96 91/90/97
f 88/88/95 89/91/98 93/92/99 92/89/96
f 89/91/98 90/93/100 94/135/101 93/92/99
f 91/90/97 92/89/96 96/95/102 95/96/103
f 92/89/96 93/92/99 97/97/104 96/95/102
f 93/92/99 94/135/101 98/140/105 97/97/104
s 8
f 99/99/106 100/100/107 103/101/108 102/102/109
f 100/100/107 101/103/110 104/104/111 103/101/108
f 101/103/110 98/98/112 94/136/113 104/104/111
f 102/102/109 103/101/108 106/105/114 105/106/115
f 103/101/108 104/104/111 107/107/116 106/105/114
f 104/104/111 94/136/113 108/139/117 107/107/116
s 9
f 109/109/118 110/110/119 113/111/120 112/112/121
f 110/110/119 111/113/122 114/114/123 113/111/120
f 111/113/122 108/108/124 94/137/125 114/114/123
f 112/112/121 113/111/120 116/115/126 115/116/127
f 113/111/120 114/114/123 117/117/128 116/115/126
f 114/114/123 94/137/125 118/138/129 117/117/128
s 10
f 119/119/130 120/120/131 123/121/132 122/122/133
f 120/120/131 121/123/134 124/124/135 123/121/132
f 121/123/134 118/118/136 94/94/137 124/124/135
f 122/122/133 123/121/132 126/125/138 125/126/139
f 123/121/132 124/124/135 127/127/140 126/125/138
f 124/124/135 94/94/137 90/141/141 127/127/140
