# This file uses centimeters as units for non-parametric coordinates.

mtllib grass.mtl
g default
v 22.947208 -3.747504 29.390930
v 60.001575 -1.322511 62.873672
v 27.853302 45.195271 20.416815
v 64.907677 47.620266 53.899551
v 38.344635 -2.321430 -21.516453
v 74.887840 -2.748585 12.607026
v 34.950062 47.381195 -17.258991
v 71.493271 46.954041 16.864487
v -35.810658 -4.771653 5.298930
v -74.887833 -0.298362 -25.571178
v -26.861996 44.239208 1.073201
v -65.939171 48.712498 -29.796907
v -28.594791 -1.521958 -34.913555
v 12.856702 -3.548058 -7.026841
v -28.594791 48.346596 -31.290371
v 12.856702 46.320496 -3.403657
v -44.465870 -0.525879 -26.345348
v -18.665314 -4.544136 -68.985527
v -36.771473 48.878536 -26.345348
v -10.970922 44.860279 -68.985527
v -6.170688 0.000000 24.874575
v 37.805256 -5.070015 1.627825
v -6.170688 48.851662 14.220236
v 37.805256 43.781647 -9.026510
v -61.687702 -1.898643 14.015985
v -21.431160 -3.171372 43.643517
v -61.687702 48.055286 16.161888
v -21.431160 46.782558 45.789421
v 5.374087 -1.688741 -27.104874
v 53.768627 -3.381274 -39.558952
v 5.374087 47.855827 -33.838074
v 53.768627 46.163292 -46.292152
v -15.204864 -4.869771 68.985535
v 20.153011 -0.200244 33.942471
v -21.751255 44.699825 68.985535
v 13.606620 49.369350 33.942471
v -19.142353 -2.535007 28.642614
v -22.451244 -2.535007 -21.247780
v -19.142353 47.464993 28.642614
v -22.451244 47.464993 -21.247780
vt 0.000000 0.000000
vt 1.000000 0.000000
vt 1.000000 1.000000
vt 0.000000 1.000000
vt 0.000000 0.000000
vt 1.000000 0.000000
vt 1.000000 1.000000
vt 0.000000 1.000000
vt 0.000000 0.000000
vt 1.000000 0.000000
vt 1.000000 1.000000
vt 0.000000 1.000000
vt 0.000000 0.000000
vt 1.000000 0.000000
vt 1.000000 1.000000
vt 0.000000 1.000000
vt 0.000000 0.000000
vt 1.000000 0.000000
vt 1.000000 1.000000
vt 0.000000 1.000000
vt 0.000000 0.000000
vt 1.000000 0.000000
vt 1.000000 1.000000
vt 0.000000 1.000000
vt 0.000000 0.000000
vt 1.000000 0.000000
vt 1.000000 1.000000
vt 0.000000 1.000000
vt 0.000000 0.000000
vt 1.000000 0.000000
vt 1.000000 1.000000
vt 0.000000 1.000000
vt 0.000000 0.000000
vt 1.000000 0.000000
vt 1.000000 1.000000
vt 0.000000 1.000000
vt 0.000000 0.000000
vt 1.000000 0.000000
vt 1.000000 1.000000
vt 0.000000 1.000000
vn -0.664200 0.198720 0.720659
vn -0.664200 0.198720 0.720659
vn -0.664200 0.198720 0.720659
vn -0.664200 0.198720 0.720659
vn -0.679138 -0.108566 0.725937
vn -0.679138 -0.108566 0.725937
vn -0.679138 -0.108566 0.725937
vn -0.679138 -0.108566 0.725937
vn 0.597627 -0.176550 -0.782095
vn 0.597627 -0.176550 -0.782094
vn 0.597627 -0.176550 -0.782095
vn 0.597627 -0.176550 -0.782094
vn -0.559204 -0.060075 0.826850
vn -0.559204 -0.060075 0.826850
vn -0.559204 -0.060075 0.826850
vn -0.559204 -0.060075 0.826850
vn 0.842645 -0.131236 0.522232
vn 0.842645 -0.131236 0.522232
vn 0.842645 -0.131236 0.522232
vn 0.842645 -0.131236 0.522232
vn 0.475864 0.187414 0.859319
vn 0.475864 0.187414 0.859319
vn 0.475864 0.187414 0.859319
vn 0.475864 0.187414 0.859319
vn -0.593097 -0.034555 0.804389
vn -0.593097 -0.034555 0.804389
vn -0.593097 -0.034555 0.804389
vn -0.593097 -0.034555 0.804389
vn 0.251371 0.130340 0.959075
vn 0.251371 0.130340 0.959075
vn 0.251371 0.130340 0.959075
vn 0.251371 0.130340 0.959075
vn 0.694828 0.091762 0.713298
vn 0.694828 0.091762 0.713298
vn 0.694828 0.091762 0.713298
vn 0.694828 0.091762 0.713298
vn 0.997808 0.000000 -0.066178
vn 0.997808 0.000000 -0.066178
vn 0.997808 0.000000 -0.066178
vn 0.997808 0.000000 -0.066178
s off
g grass
usemtl lambert2SG
f 1/1/1 2/2/2 4/3/3 3/4/4
f 5/5/5 6/6/6 8/7/7 7/8/8
f 9/9/9 10/10/10 12/11/11 11/12/12
f 13/13/13 14/14/14 16/15/15 15/16/16
f 17/17/17 18/18/18 20/19/19 19/20/20
f 21/21/21 22/22/22 24/23/23 23/24/24
f 25/25/25 26/26/26 28/27/27 27/28/28
f 29/29/29 30/30/30 32/31/31 31/32/32
f 33/33/33 34/34/34 36/35/35 35/36/36
f 37/37/37 38/38/38 40/39/39 39/40/40
