# This file uses centimeters as units for non-parametric coordinates.

mtllib house_test.mtl
g default
v 58.627838 206.441162 -50.000000
v 58.627838 206.441162 66.910538
v 58.627834 284.247742 -50.000000
v 58.627834 284.247742 66.910538
v 170.422424 284.247742 -50.000000
v 170.422424 284.247742 66.910538
v 170.422424 206.441162 -50.000000
v 170.422424 206.441162 66.910538
v 114.525131 351.385712 -50.000000
v 114.525131 206.441162 -50.000000
v 114.525131 206.441162 66.910538
v 114.525131 351.385712 66.910538
v 58.627834 279.324341 -50.000000
v 58.627834 279.324341 66.910538
v 114.525131 279.324707 66.910538
v 170.422424 279.324341 66.910538
v 170.422424 279.324341 -50.000000
v -58.627838 206.441162 -50.000000
v -58.627838 206.441162 66.910538
v -58.627834 284.247742 -50.000000
v -58.627834 284.247742 66.910538
v -170.422424 284.247742 -50.000000
v -170.422424 284.247742 66.910538
v -170.422424 206.441162 -50.000000
v -170.422424 206.441162 66.910538
v -114.525131 351.385712 -50.000000
v -114.525131 206.441162 -50.000000
v -114.525131 206.441162 66.910538
v -114.525131 351.385712 66.910538
v -58.627834 279.324341 -50.000000
v -58.627834 279.324341 66.910538
v -114.525131 279.324707 66.910538
v -170.422424 279.324341 66.910538
v -170.422424 279.324341 -50.000000
v -225.000000 -0.000015 94.177002
v 225.000000 -0.000015 94.177002
v -225.000000 179.876007 94.177002
v 225.000000 179.876007 94.177002
v -225.000000 179.876007 -200.000000
v 225.000000 179.876007 -200.000000
v -225.000000 -0.000015 -200.000000
v 225.000000 -0.000015 -200.000000
v -225.000000 379.876007 -52.911503
v -225.000000 -0.000015 -52.911503
v 225.000000 -0.000015 -52.911503
v 225.000000 379.876007 -52.911503
v -69.497437 0.000000 -62.662140
v -69.497437 0.000000 163.867828
v -69.497444 135.711380 -62.662140
v -69.497444 135.711380 163.867828
v 69.497444 135.711380 -62.662140
v 69.497444 135.711380 163.867828
v 69.497444 0.000000 -62.662140
v 69.497444 0.000000 163.867828
v 0.000000 230.284592 -62.662140
v 0.000000 0.000000 -62.662140
v 0.000000 0.000000 163.867828
v 0.000000 230.284592 163.867828
v -69.497444 128.776093 -62.662140
v -69.497444 128.776093 163.867828
v 0.000000 128.776566 163.867828
v 69.497444 128.776093 163.867828
v 69.497444 128.776093 -62.662140
v 53.325127 288.662628 -50.000000
v 53.325127 288.662628 66.910538
v 114.525131 362.169647 66.910538
v 114.525131 362.169647 -50.000000
v 175.725128 288.662628 66.910538
v 175.725128 288.662628 -50.000000
v -53.325127 288.662628 -50.000000
v -114.525131 362.169647 -50.000000
v -114.525131 362.169647 66.910538
v -53.325127 288.662628 66.910538
v -175.725128 288.662628 -50.000000
v -175.725128 288.662628 66.910538
v -225.000000 183.964035 99.735603
v 225.000000 183.964035 99.735603
v 225.000000 391.522217 -52.911503
v -225.000000 391.522217 -52.911503
v 225.000000 183.964035 -205.558594
v -225.000000 183.964035 -205.558594
v -75.057602 139.797287 -62.662140
v -75.057602 139.797287 163.867828
v 0.000000 241.936844 163.867828
v -0.000000 241.936844 -62.662140
v 75.057602 139.797287 163.867828
v 75.057602 139.797287 -62.662140
v 58.627831 284.247742 74.310539
v 114.525131 351.385712 74.310539
v 114.525124 362.169647 74.310539
v 53.325123 288.662628 74.310539
v 170.422424 284.247742 74.310539
v 175.725128 288.662628 74.310539
v -58.627831 284.247742 74.310539
v -114.525131 351.385712 74.310539
v -53.325123 288.662628 74.310539
v -114.525139 362.169647 74.310539
v -170.422424 284.247742 74.310539
v -175.725128 288.662628 74.310539
v 232.399994 179.875992 94.177002
v 232.399994 379.876007 -52.911503
v 232.399994 391.522217 -52.911503
v 232.399994 183.964020 99.735603
v 232.399994 179.876007 -200.000000
v 232.399994 183.964035 -205.558594
v -232.399994 179.875992 94.177002
v -232.399994 379.875977 -52.911503
v -232.399994 183.964020 99.735603
v -232.399994 391.522217 -52.911503
v -232.399994 179.876007 -200.000000
v -232.399994 183.964035 -205.558594
v -69.497444 135.711380 171.267822
v 0.000005 230.284592 171.267822
v -0.000001 241.936844 171.267822
v -75.057602 139.797287 171.267822
v 69.497452 135.711380 171.267822
v 75.057610 139.797287 171.267822
vt 0.375000 0.000000
vt 0.625000 0.000000
vt 0.375000 0.250000
vt 0.625000 0.250000
vt 0.375000 0.500000
vt 0.625000 0.500000
vt 0.375000 0.750000
vt 0.625000 0.750000
vt 0.375000 1.000000
vt 0.625000 1.000000
vt 0.875000 0.000000
vt 0.875000 0.250000
vt 0.375000 0.375000
vt 0.375000 0.875000
vt 0.625000 0.875000
vt 0.750000 0.000000
vt 0.625000 0.375000
vt 0.750000 0.250000
vt 0.375000 0.125000
vt 0.625000 0.125000
vt 0.750000 0.125000
vt 0.625000 0.625000
vt 0.875000 0.125000
vt 0.375000 0.625000
vt 0.375000 0.125000
vt 0.625000 0.125000
vt 0.625000 0.250000
vt 0.375000 0.250000
vt 0.625000 0.375000
vt 0.375000 0.375000
vt 0.375000 0.500000
vt 0.625000 0.500000
vt 0.625000 0.625000
vt 0.375000 0.625000
vt 0.375000 0.875000
vt 0.625000 0.875000
vt 0.625000 1.000000
vt 0.375000 1.000000
vt 0.750000 0.125000
vt 0.750000 0.250000
vt 0.375000 0.750000
vt 0.625000 0.750000
vt 0.875000 0.125000
vt 0.875000 0.250000
vt 0.375000 0.000000
vt 0.625000 0.000000
vt 0.750000 0.000000
vt 0.875000 0.000000
vt 0.375000 0.000000
vt 0.625000 0.000000
vt 0.625000 0.250000
vt 0.375000 0.250000
vt 0.625000 0.375000
vt 0.375000 0.375000
vt 0.375000 0.500000
vt 0.625000 0.500000
vt 0.625000 0.750000
vt 0.375000 0.750000
vt 0.375000 0.875000
vt 0.625000 0.875000
vt 0.625000 1.000000
vt 0.375000 1.000000
vt 0.750000 0.000000
vt 0.750000 0.250000
vt 0.250000 0.250000
vt 0.250000 0.000000
vt 0.125000 0.000000
vt 0.125000 0.250000
vt 0.875000 0.000000
vt 0.875000 0.250000
vt 0.375000 0.125000
vt 0.625000 0.125000
vt 0.625000 0.250000
vt 0.375000 0.250000
vt 0.625000 0.375000
vt 0.375000 0.375000
vt 0.375000 0.500000
vt 0.625000 0.500000
vt 0.625000 0.625000
vt 0.375000 0.625000
vt 0.375000 0.875000
vt 0.625000 0.875000
vt 0.625000 1.000000
vt 0.375000 1.000000
vt 0.750000 0.125000
vt 0.750000 0.250000
vt 0.375000 0.750000
vt 0.625000 0.750000
vt 0.875000 0.125000
vt 0.875000 0.250000
vt 0.375000 0.000000
vt 0.625000 0.000000
vt 0.750000 0.000000
vt 0.875000 0.000000
vt 0.375000 0.250000
vt 0.625000 0.250000
vt 0.625000 0.375000
vt 0.375000 0.375000
vt 0.625000 0.500000
vt 0.375000 0.500000
vt 0.375000 0.250000
vt 0.375000 0.375000
vt 0.625000 0.375000
vt 0.625000 0.250000
vt 0.375000 0.500000
vt 0.625000 0.500000
vt 0.375000 0.250000
vt 0.625000 0.250000
vt 0.625000 0.375000
vt 0.375000 0.375000
vt 0.625000 0.500000
vt 0.375000 0.500000
vt 0.375000 0.250000
vt 0.625000 0.250000
vt 0.625000 0.375000
vt 0.375000 0.375000
vt 0.625000 0.500000
vt 0.375000 0.500000
vt 0.625000 0.250000
vt 0.625000 0.375000
vt 0.625000 0.375000
vt 0.625000 0.250000
vt 0.625000 0.500000
vt 0.625000 0.500000
vt 0.625000 0.375000
vt 0.625000 0.250000
vt 0.625000 0.250000
vt 0.625000 0.375000
vt 0.625000 0.500000
vt 0.625000 0.500000
vt 0.625000 0.250000
vt 0.625000 0.375000
vt 0.625000 0.375000
vt 0.625000 0.250000
vt 0.375000 0.375000
vt 0.375000 0.250000
vt 0.375000 0.250000
vt 0.375000 0.375000
vt 0.625000 0.500000
vt 0.625000 0.500000
vt 0.375000 0.500000
vt 0.375000 0.500000
vt 0.625000 0.250000
vt 0.625000 0.375000
vt 0.625000 0.375000
vt 0.625000 0.250000
vt 0.625000 0.500000
vt 0.625000 0.500000
vn -1.000000 -0.000000 0.000000
vn -1.000000 -0.000000 0.000000
vn -1.000000 0.000000 0.000000
vn -1.000000 0.000000 0.000000
vn -0.768508 0.639840 0.000000
vn -0.768508 0.639840 -0.000000
vn 0.000000 1.000000 -0.000000
vn 0.000000 1.000000 0.000000
vn 1.000000 0.000000 0.000000
vn 1.000000 0.000000 0.000000
vn 1.000000 0.000000 0.000000
vn 1.000000 0.000000 0.000000
vn 0.000000 -1.000000 0.000000
vn 0.000000 -1.000000 0.000000
vn 0.000000 -1.000000 0.000000
vn 0.000000 -1.000000 0.000000
vn 0.000000 0.000000 1.000000
vn 0.000000 0.000000 1.000000
vn 0.000000 0.000000 1.000000
vn 0.000000 0.000000 1.000000
vn 0.000000 -1.000000 0.000000
vn 0.000000 -1.000000 0.000000
vn 0.000000 0.000000 1.000000
vn 0.000000 0.000000 1.000000
vn 0.768508 0.639840 0.000000
vn 0.768508 0.639840 0.000000
vn -1.000000 -0.000000 0.000000
vn -1.000000 -0.000000 0.000000
vn 0.000000 0.000000 1.000000
vn 0.000000 0.000000 1.000000
vn 0.000000 0.000000 1.000000
vn 1.000000 0.000000 0.000000
vn 1.000000 0.000000 0.000000
vn 1.000000 -0.000000 0.000000
vn 1.000000 0.000000 0.000000
vn 1.000000 0.000000 0.000000
vn 1.000000 -0.000000 0.000000
vn 0.768508 0.639840 0.000000
vn 0.000000 1.000000 0.000000
vn 0.000000 1.000000 -0.000000
vn 0.768508 0.639840 -0.000000
vn -1.000000 0.000000 0.000000
vn -1.000000 0.000000 0.000000
vn -1.000000 0.000000 0.000000
vn -1.000000 0.000000 0.000000
vn 0.000000 -1.000000 0.000000
vn 0.000000 -1.000000 0.000000
vn 0.000000 -1.000000 0.000000
vn 0.000000 -1.000000 0.000000
vn 0.000000 0.000000 1.000000
vn 0.000000 0.000000 1.000000
vn 0.000000 0.000000 1.000000
vn 0.000000 0.000000 1.000000
vn 0.000000 -1.000000 0.000000
vn 0.000000 -1.000000 0.000000
vn 0.000000 0.000000 1.000000
vn 0.000000 0.000000 1.000000
vn -0.768508 0.639840 0.000000
vn -0.768508 0.639840 -0.000000
vn 1.000000 -0.000000 0.000000
vn 1.000000 -0.000000 0.000000
vn 0.000000 0.000000 1.000000
vn 0.000000 0.000000 1.000000
vn 0.000000 0.000000 1.000000
vn -1.000000 0.000000 0.000000
vn -1.000000 0.000000 0.000000
vn 0.000000 0.000000 1.000000
vn 0.000000 0.000000 1.000000
vn 0.000000 0.000000 1.000000
vn 0.000000 0.000000 1.000000
vn -0.000000 0.592468 0.805594
vn 0.000000 0.592468 0.805594
vn 0.000000 1.000000 -0.000000
vn -0.000000 1.000000 -0.000000
vn 0.000000 0.000000 -1.000000
vn 0.000000 0.000000 -1.000000
vn 0.000000 0.000000 -1.000000
vn 0.000000 0.000000 -1.000000
vn 0.000000 -1.000000 0.000000
vn 0.000000 -1.000000 0.000000
vn 0.000000 -1.000000 0.000000
vn 0.000000 -1.000000 0.000000
vn 1.000000 0.000000 0.000000
vn 1.000000 0.000000 0.000000
vn 1.000000 0.000000 0.000000
vn 1.000000 0.000000 0.000000
vn -1.000000 0.000000 0.000000
vn -1.000000 0.000000 0.000000
vn -1.000000 0.000000 0.000000
vn -1.000000 0.000000 0.000000
vn -1.000000 0.000000 0.000000
vn -1.000000 0.000000 0.000000
vn 0.000000 -1.000000 0.000000
vn 0.000000 -1.000000 0.000000
vn 1.000000 0.000000 0.000000
vn 1.000000 0.000000 0.000000
vn 0.000000 0.592468 -0.805594
vn 0.000000 0.592468 -0.805594
vn -1.000000 -0.000000 0.000000
vn -1.000000 -0.000000 0.000000
vn -1.000000 0.000000 0.000000
vn -1.000000 0.000000 0.000000
vn -0.805821 0.592160 0.000000
vn -0.805820 0.592160 -0.000000
vn 0.000000 1.000000 -0.000000
vn 0.000000 1.000000 0.000000
vn 1.000000 0.000000 0.000000
vn 1.000000 0.000000 0.000000
vn 1.000000 0.000000 0.000000
vn 1.000000 0.000000 0.000000
vn 0.000000 -1.000000 0.000000
vn 0.000000 -1.000000 0.000000
vn 0.000000 -1.000000 0.000000
vn 0.000000 -1.000000 0.000000
vn -0.000000 0.000000 1.000000
vn -0.000000 0.000000 1.000000
vn -0.000000 0.000000 1.000000
vn -0.000000 0.000000 1.000000
vn 0.000000 -1.000000 0.000000
vn 0.000000 -1.000000 0.000000
vn 0.000000 0.000000 1.000000
vn 0.000000 0.000000 1.000000
vn 0.805820 0.592160 0.000000
vn 0.805821 0.592160 0.000000
vn -1.000000 -0.000000 0.000000
vn -1.000000 -0.000000 0.000000
vn 0.000000 0.000000 1.000000
vn 0.000000 0.000000 1.000000
vn 0.000000 0.000000 1.000000
vn 1.000000 0.000000 0.000000
vn 1.000000 0.000000 0.000000
vn -0.639839 -0.768509 0.000000
vn -0.639839 -0.768509 -0.000000
vn -0.639839 -0.768509 -0.000000
vn -0.639839 -0.768509 0.000000
vn 0.000001 0.000000 1.000000
vn 0.000000 0.000000 1.000000
vn 0.000000 0.000000 1.000000
vn 0.000001 0.000000 1.000000
vn 0.000000 0.000000 -1.000000
vn 0.000000 0.000000 -1.000000
vn 0.000000 0.000000 -1.000000
vn 0.000000 0.000000 -1.000000
vn -0.000000 0.000000 1.000000
vn -0.000000 0.000000 1.000000
vn 0.639840 -0.768508 0.000000
vn 0.639840 -0.768508 0.000000
vn 0.639840 -0.768508 0.000000
vn 0.639840 -0.768508 0.000000
vn -0.000000 0.000000 -1.000000
vn -0.000000 0.000000 -1.000000
vn -0.000000 0.000000 -1.000000
vn 0.000000 0.000000 -1.000000
vn 0.000000 0.000000 -1.000000
vn -0.000000 0.000000 -1.000000
vn 0.000000 0.000000 1.000000
vn -0.000000 0.000000 1.000000
vn -0.000000 0.000000 1.000000
vn 0.000000 0.000000 1.000000
vn 0.639839 -0.768509 -0.000000
vn 0.639839 -0.768509 0.000000
vn 0.639839 -0.768509 0.000000
vn 0.639839 -0.768509 -0.000000
vn 0.000000 0.000000 -1.000000
vn 0.000000 0.000000 -1.000000
vn -0.639840 -0.768508 0.000000
vn -0.639840 -0.768508 0.000000
vn -0.639840 -0.768508 0.000000
vn -0.639840 -0.768508 0.000000
vn 0.000001 0.000000 1.000000
vn 0.000001 0.000000 1.000000
vn 0.000000 -0.805595 0.592467
vn -0.000000 -0.805595 0.592467
vn -0.000000 -0.805595 0.592467
vn 0.000000 -0.805595 0.592467
vn 1.000000 -0.000001 0.000000
vn 1.000000 -0.000000 0.000000
vn 1.000000 -0.000000 0.000000
vn 1.000000 -0.000001 0.000000
vn -1.000000 0.000000 0.000000
vn -1.000000 0.000000 0.000000
vn -1.000000 0.000000 0.000000
vn -1.000000 0.000000 0.000000
vn 1.000000 0.000000 0.000000
vn 1.000000 0.000000 0.000000
vn 0.000000 -0.805594 -0.592468
vn 0.000000 -0.805594 -0.592468
vn 0.000000 -0.805594 -0.592468
vn 0.000000 -0.805594 -0.592468
vn -1.000000 0.000000 0.000000
vn -1.000000 0.000000 0.000000
vn -0.592160 -0.805820 0.000000
vn -0.592160 -0.805820 0.000000
vn -0.592160 -0.805820 0.000000
vn -0.592160 -0.805820 0.000000
vn -0.000001 0.000000 1.000000
vn -0.000000 0.000000 1.000000
vn -0.000000 0.000000 1.000000
vn -0.000001 0.000000 1.000000
vn -0.000000 0.000000 -1.000000
vn 0.000000 0.000000 -1.000000
vn 0.000000 0.000000 -1.000000
vn -0.000000 0.000000 -1.000000
vn 0.000001 0.000000 1.000000
vn 0.000001 0.000000 1.000000
vn 0.592160 -0.805820 -0.000000
vn 0.592160 -0.805820 0.000000
vn 0.592160 -0.805820 0.000000
vn 0.592160 -0.805820 -0.000000
vn -0.000001 0.000000 -1.000000
vn -0.000001 0.000000 -1.000000
vn 0.768508 -0.639840 -0.000002
vn 0.768508 -0.639840 -0.000002
vn 0.768508 -0.639840 -0.000002
vn 0.768508 -0.639840 -0.000002
vn -0.768508 0.639840 -0.000001
vn -0.768508 0.639840 -0.000001
vn -0.639839 -0.768509 -0.000000
vn -0.639839 -0.768509 -0.000000
vn -0.768508 -0.639840 0.000000
vn -0.768508 -0.639840 0.000000
vn -0.768508 -0.639840 0.000000
vn -0.768508 -0.639840 0.000000
vn 0.639840 -0.768509 0.000000
vn 0.639840 -0.768509 0.000000
vn 0.768508 0.639840 0.000000
vn 0.768508 0.639840 0.000000
vn -0.768508 -0.639840 -0.000003
vn -0.768508 -0.639840 -0.000003
vn -0.768508 -0.639840 -0.000003
vn -0.768508 -0.639840 -0.000003
vn 0.639839 -0.768509 -0.000000
vn 0.639839 -0.768509 -0.000000
vn 0.768508 0.639840 -0.000001
vn 0.768508 0.639840 -0.000001
vn 0.768508 -0.639840 0.000000
vn 0.768508 -0.639840 0.000000
vn 0.768508 -0.639840 0.000000
vn 0.768508 -0.639840 0.000000
vn -0.768508 0.639840 -0.000001
vn -0.768509 0.639840 -0.000001
vn -0.639840 -0.768509 0.000000
vn -0.639840 -0.768509 0.000000
vn -0.000001 -0.592468 -0.805594
vn -0.000001 -0.592468 -0.805594
vn -0.000001 -0.592468 -0.805594
vn -0.000001 -0.592468 -0.805594
vn 0.000001 0.592467 0.805594
vn 0.000001 0.592467 0.805595
vn -0.000002 -0.805595 0.592467
vn -0.000002 -0.805595 0.592467
vn 0.000000 -0.592468 0.805594
vn 0.000000 -0.592468 0.805594
vn 0.000000 -0.592468 0.805594
vn 0.000000 -0.592468 0.805594
vn 0.000000 -0.805593 -0.592469
vn 0.000000 -0.805593 -0.592469
vn 0.000000 0.592467 -0.805595
vn 0.000000 0.592467 -0.805595
vn 0.000002 -0.592468 -0.805594
vn 0.000002 -0.592468 -0.805594
vn 0.000002 -0.592468 -0.805594
vn 0.000002 -0.592468 -0.805594
vn 0.000002 -0.805595 0.592467
vn 0.000002 -0.805595 0.592467
vn -0.000001 0.592467 0.805595
vn -0.000001 0.592467 0.805594
vn 0.000001 -0.592468 0.805594
vn 0.000001 -0.592468 0.805594
vn 0.000001 -0.592468 0.805594
vn 0.000001 -0.592468 0.805594
vn 0.000000 0.592467 -0.805595
vn 0.000000 0.592467 -0.805595
vn 0.000000 -0.805593 -0.592469
vn 0.000000 -0.805593 -0.592469
vn 0.805820 -0.592160 0.000000
vn 0.805820 -0.592160 0.000000
vn 0.805820 -0.592160 0.000000
vn 0.805820 -0.592160 0.000000
vn -0.805820 0.592160 -0.000000
vn -0.805820 0.592160 -0.000000
vn -0.592160 -0.805820 0.000000
vn -0.592160 -0.805820 0.000000
vn -0.805820 -0.592160 0.000000
vn -0.805820 -0.592160 0.000000
vn -0.805820 -0.592160 0.000000
vn -0.805820 -0.592160 0.000000
vn 0.592161 -0.805820 -0.000000
vn 0.592161 -0.805820 -0.000000
vn 0.805820 0.592160 0.000000
vn 0.805820 0.592160 0.000000
s 1
g pCube8
usemtl initialShadingGroup
f 13/19/1 14/20/2 4/4/3 3/3/4
s 2
f 64/95/5 65/96/6 66/97/7 67/98/8
s 3
f 5/5/9 6/6/10 16/22/11 17/24/12
s 4
f 10/14/13 11/15/14 2/10/15 1/9/16
s 5
f 14/20/17 15/21/18 12/18/19 4/4/20
s 4
f 7/7/21 8/8/22 11/15/14 10/14/13
s 5
f 12/18/19 15/21/18 16/23/23 6/12/24
s 2
f 67/98/8 66/97/7 68/99/25 69/100/26
s 1
f 1/1/27 2/2/28 14/20/2 13/19/1
s 5
f 2/2/29 11/16/30 15/21/18 14/20/17
f 16/23/23 15/21/18 11/16/30 8/11/31
s 3
f 17/24/12 16/22/11 8/8/32 7/7/33
s 6
f 30/25/34 20/28/35 21/27/36 31/26/37
s 7
f 70/101/38 71/102/39 72/103/40 73/104/41
s 8
f 22/31/42 34/34/43 33/33/44 23/32/45
s 9
f 27/35/46 18/38/47 19/37/48 28/36/49
s 10
f 31/26/50 21/27/51 29/40/52 32/39/53
s 9
f 24/41/54 27/35/46 28/36/49 25/42/55
s 10
f 29/40/52 23/44/56 33/43/57 32/39/53
s 7
f 71/102/39 74/105/58 75/106/59 72/103/40
s 6
f 18/45/60 30/25/34 31/26/37 19/46/61
s 10
f 19/46/62 31/26/50 32/39/53 28/47/63
f 33/43/57 25/48/64 28/47/63 32/39/53
s 8
f 34/34/43 24/41/65 25/42/66 33/33/44
s off
f 35/49/67 36/50/68 38/51/69 37/52/70
s 11
f 76/107/71 77/108/72 78/109/73 79/110/74
s off
f 39/55/75 40/56/76 42/57/77 41/58/78
s 12
f 44/59/79 45/60/80 36/61/81 35/62/82
s 13
f 36/50/83 45/63/84 46/64/85 38/51/86
s 14
f 43/65/87 44/66/88 35/49/89 37/52/90
f 41/67/91 44/66/88 43/65/87 39/68/92
s 12
f 41/58/93 42/57/94 45/60/80 44/59/79
s 13
f 46/64/85 45/63/84 42/69/95 40/70/96
s 11
f 79/110/74 78/109/73 80/111/97 81/112/98
s 15
f 59/71/99 60/72/100 50/73/101 49/74/102
s 16
f 82/113/103 83/114/104 84/115/105 85/116/106
s 17
f 51/77/107 52/78/108 62/79/109 63/80/110
s 18
f 56/81/111 57/82/112 48/83/113 47/84/114
s 19
f 60/72/115 61/85/116 58/86/117 50/73/118
s 18
f 53/87/119 54/88/120 57/82/112 56/81/111
s 19
f 58/86/117 61/85/116 62/89/121 52/90/122
s 16
f 85/116/106 84/115/105 86/117/123 87/118/124
s 15
f 47/91/125 48/92/126 60/72/100 59/71/99
s 19
f 48/92/127 57/93/128 61/85/116 60/72/115
f 62/89/121 61/85/116 57/93/128 54/94/129
s 17
f 63/80/110 62/79/109 54/88/130 53/87/131
s 20
f 3/3/132 4/4/133 65/96/134 64/95/135
s 21
f 88/119/136 89/120/137 90/121/138 91/122/139
s 22
f 9/13/140 3/3/141 64/95/142 67/98/143
s 21
f 89/120/137 92/123/144 93/124/145 90/121/138
s 23
f 6/6/146 5/5/147 69/100/148 68/99/149
s 22
f 5/5/150 9/13/140 67/98/143 69/100/151
s 24
f 20/28/152 26/30/153 71/102/154 70/101/155
s 25
f 95/125/156 94/126/157 96/127/158 97/128/159
s 26
f 21/27/160 20/28/161 70/101/162 73/104/163
s 24
f 26/30/153 22/31/164 74/105/165 71/102/154
s 27
f 22/31/166 23/32/167 75/106/168 74/105/169
s 25
f 98/129/170 95/125/156 97/128/159 99/130/171
s 28
f 37/52/172 38/51/173 77/108/174 76/107/175
s 29
f 100/131/176 101/132/177 102/133/178 103/134/179
s 30
f 107/135/180 106/136/181 108/137/182 109/138/183
s 29
f 101/132/177 104/139/184 105/140/185 102/133/178
s 31
f 40/56/186 39/55/187 81/112/188 80/111/189
s 30
f 110/141/190 107/135/180 109/138/183 111/142/191
s 32
f 49/74/192 50/73/193 83/114/194 82/113/195
s 33
f 112/143/196 113/144/197 114/145/198 115/146/199
s 34
f 55/76/200 49/74/201 82/113/202 85/116/203
s 33
f 113/144/197 116/147/204 117/148/205 114/145/198
s 35
f 52/78/206 51/77/207 87/118/208 86/117/209
s 34
f 51/77/210 55/76/200 85/116/203 87/118/211
s off
f 4/4/212 12/17/213 89/120/214 88/119/215
s 2
f 66/97/7 65/96/6 91/122/216 90/121/217
s 20
f 65/96/134 4/4/133 88/119/218 91/122/219
s off
f 12/17/220 6/6/221 92/123/222 89/120/223
s 23
f 6/6/146 68/99/149 93/124/224 92/123/225
s 2
f 68/99/25 66/97/7 90/121/226 93/124/227
s off
f 29/29/228 21/27/229 94/126/230 95/125/231
s 26
f 21/27/160 73/104/163 96/127/232 94/126/233
s 7
f 73/104/41 72/103/40 97/128/234 96/127/235
s off
f 23/32/236 29/29/237 95/125/238 98/129/239
s 7
f 72/103/40 75/106/59 99/130/240 97/128/241
s 27
f 75/106/168 23/32/167 98/129/242 99/130/243
s off
f 38/51/244 46/53/245 101/132/246 100/131/247
s 11
f 78/109/73 77/108/72 103/134/248 102/133/249
s 28
f 77/108/174 38/51/173 100/131/250 103/134/251
s off
f 46/54/252 40/52/253 104/136/254 101/135/255
s 31
f 40/52/186 80/107/189 105/137/256 104/136/257
s 11
f 80/107/97 78/110/73 102/138/258 105/137/259
s off
f 43/53/260 37/56/261 106/139/262 107/132/263
s 28
f 37/56/172 76/111/175 108/140/264 106/139/265
s 11
f 76/111/71 79/109/74 109/133/266 108/140/267
s off
f 39/55/268 43/54/269 107/135/270 110/141/271
s 11
f 79/110/74 81/112/98 111/142/272 109/138/273
s 31
f 81/112/188 39/55/187 110/141/274 111/142/275
s off
f 50/73/276 58/75/277 113/144/278 112/143/279
s 16
f 84/115/105 83/114/104 115/146/280 114/145/281
s 32
f 83/114/194 50/73/193 112/143/282 115/146/283
s off
f 58/75/284 52/78/285 116/147/286 113/144/287
s 35
f 52/78/206 86/117/209 117/148/288 116/147/289
s 16
f 86/117/123 84/115/105 114/145/290 117/148/291
