# File produced by Open Asset Import Library (http://www.assimp.sf.net)
# (assimp v3.1.187256796)

mtllib statue_mum.mtl

# vertex positions
v -4.164219 18.621916 8.725781
v -15.615026 13.576488 -9.697956
v -18.556141 0.000000 -11.836455
v -5.857091 0.000000 11.836454
v -0.753049 23.564659 -11.648860
v -15.266956 26.187340 -8.116072
v -10.129005 45.103619 -5.743244
v -1.298878 48.922321 -6.536487
v 0.031332 0.000000 -14.845510
v 18.618805 0.000000 -11.836455
v 1.048519 33.792671 6.864359
v -2.637675 40.863190 5.743244
v -5.266087 31.955627 6.981587
v 13.714213 26.217653 -8.112617
v 7.531249 45.103619 -5.743244
v -2.264453 44.578106 -0.744236
v -5.266269 46.944996 -4.867647
v 2.147470 47.064407 -4.944586
v -2.704996 47.685230 -0.663970
v -4.578165 49.276474 -3.964548
v 2.077756 48.935127 -2.691462
v -0.522715 50.335442 -4.863100
v 3.089758 48.871235 1.800127
v 7.881920 49.956799 -1.532872
v 12.563691 61.292480 1.319580
v 6.023540 54.600361 3.644685
v 5.155197 51.137779 -3.726718
v 8.417763 60.549377 -0.850651
v -3.566503 53.285721 2.426697
v -3.170266 47.395676 1.516292
v -0.232900 59.608517 -2.932880
v -9.839272 52.018539 -0.863060
v -7.732872 54.232800 -6.380826
v -10.359655 59.555206 0.957294
v -7.308514 65.159714 -4.218035
v -11.965741 57.622417 -7.288568
v -13.693433 58.380123 -3.216899
v -14.665396 67.769699 -2.957541
v -12.931122 63.768898 -7.577220
v -10.542395 74.937119 -6.051015
v -0.352190 9.411970 -13.051070
v 14.832908 13.627010 -9.692202
v 17.982578 14.234882 -8.902410
v 5.576874 22.423420 10.572697
v -0.552619 16.488317 -12.349965
v -19.556599 15.987896 -9.213689
v -12.847833 21.053822 10.025373
v -7.365002 22.743225 15.667902
v -5.718216 22.678123 15.667509
v -5.356977 24.578203 15.151762
v -6.870830 24.898386 15.318436
v -10.275991 24.652683 10.577461
v -6.992375 23.495377 12.639576
v -4.020585 23.151016 8.028526
v -6.440519 24.047827 6.104261
v -4.428504 20.595474 8.027264
v -7.457932 20.989857 5.709781
v -7.253248 21.061050 12.733179
v -11.293405 21.594715 10.182980
v -0.344961 24.032104 16.469328
v 2.283055 23.617662 13.404348
v 1.930838 24.899382 12.991583
v -0.697179 25.313829 16.056561
v -4.783620 20.734838 14.292042
v -1.399078 20.201092 10.344749
v -1.600652 22.254194 9.952795
v -4.985193 22.787941 13.900085
v -10.919279 22.186464 11.567536
v -9.971790 24.594564 11.718899
v -11.824032 20.818520 7.855077
v -7.988561 20.213661 3.381880
v -10.806620 23.876490 8.249559
v -6.971148 23.271631 3.776360
v -0.139976 27.225035 15.874064
v -0.876628 29.097454 14.788297
v -2.428706 28.567095 14.678820
v -1.850942 26.983461 15.844890
v 2.562963 27.515448 10.154319
v -1.505411 24.899553 5.690260
v -3.886073 24.479301 7.870131
v -0.688897 26.802937 12.534373
v -0.155861 21.954403 6.335406
v -3.210144 22.088923 8.729603
v 3.912515 24.570299 10.799466
v -0.175489 24.546406 13.445557
v -7.564223 27.978550 16.046196
v -7.334391 29.088219 15.211900
v -10.121986 27.295839 12.153184
v -10.351822 26.186172 12.987481
v -2.674364 24.531799 15.063036
v -6.264427 22.223448 11.123805
v -6.266730 24.059046 10.050005
v -2.676666 26.367399 13.989234
v 3.503923 25.595228 11.999146
v 2.284057 27.840794 11.324696
v 0.109037 24.613131 6.003922
v 0.924073 22.834467 6.393545
v 2.566050 26.192949 8.699902
v 3.381089 24.414286 9.089524

# UV coordinates
vt 0.512002 0.503259
vt 0.393975 0.280488
vt 0.523267 0.143032
vt 0.609871 0.353100
vt 0.180351 0.321418
vt 0.288973 0.422212
vt 0.169847 0.607030
vt 0.068807 0.596971
vt 0.798251 0.172845
vt 0.877467 0.409927
vt 0.414887 0.683154
vt 0.326222 0.710972
vt 0.375879 0.624118
vt 0.029955 0.287969
vt 0.000001 0.518129
vt 0.793106 0.022491
vt 0.806464 0.171900
vt 0.753991 0.112748
vt 0.747955 0.052096
vt 0.640456 0.143261
vt 0.685270 0.100942
vt 0.697358 0.057773
vt 0.699548 0.052956
vt 0.732126 0.751088
vt 0.743719 0.710349
vt 0.774705 0.715616
vt 0.752829 0.767025
vt 0.755151 0.647491
vt 0.780296 0.652131
vt 0.663010 0.766905
vt 0.703956 0.775224
vt 0.701649 0.799081
vt 0.658426 0.793211
vt 0.825952 0.649458
vt 0.824499 0.586569
vt 0.962591 0.537222
vt 0.892214 0.618181
vt 0.603020 0.826369
vt 0.643215 0.829527
vt 0.625954 0.937593
vt 0.579102 0.958529
vt 0.867234 0.712986
vt 0.802081 0.708917
vt 0.719278 0.906705
vt 0.970484 0.692977
vt 0.971914 0.589637
vt 0.825850 0.776122
vt 0.784262 0.827501
vt 0.909764 0.789542
vt 0.999999 0.809125
vt 0.824716 0.949880
vt 0.834762 0.851730
vt 0.869242 0.827865
vt 0.936311 0.875411
vt 0.872682 0.892704
vt 0.981907 0.956295
vt 0.302782 0.075538
vt 0.260751 0.173715
vt 0.086846 0.153303
vt 0.117763 0.000001
vt 0.774144 0.587771
vt 0.767298 0.631051
vt 0.525902 0.603284
vt 0.221757 0.246316
vt 0.052624 0.146337
vt 0.366576 0.323769
vt 0.431137 0.498556
vt 0.639917 0.760795
vt 0.420534 0.875627
vt 0.050412 0.039773
vt 0.066599 0.038197
vt 0.062332 0.062320
vt 0.045474 0.063628
vt 0.529213 0.081360
vt 0.496242 0.107072
vt 0.452369 0.065158
vt 0.474597 0.041128
vt 0.642146 0.018148
vt 0.658986 0.046048
vt 0.637451 0.062743
vt 0.607358 0.030162
vt 0.601765 0.105435
vt 0.561522 0.068526
vt 0.061206 0.865188
vt 0.095726 0.889421
vt 0.083504 0.900873
vt 0.045949 0.868563
vt 0.083900 0.812054
vt 0.136086 0.839590
vt 0.147512 0.858012
vt 0.106178 0.899778
vt 0.000037 0.810656
vt 0.059181 0.813263
vt 0.000001 0.865433
vt 0.046278 0.792982
vt 0.073187 0.787281
vt 0.475380 0.123416
vt 0.429055 0.089314
vt 0.676576 0.075014
vt 0.665809 0.094002
vt 0.624742 0.128074
vt 0.561642 0.084410
vt 0.528767 0.092818
vt 0.536232 0.091531
vt 0.003633 0.016997
vt 0.045362 0.004898
vt 0.070894 0.000001
vt 0.086453 0.029393
vt 0.015474 0.077670
vt 0.000001 0.046637
vt 0.047951 0.079931
vt 0.556207 0.044710
vt 0.596427 0.004951
vt 0.526832 0.055717
vt 0.475259 0.016013
vt 0.625992 0.000737
vt 0.190796 0.714356
vt 0.170498 0.709539
vt 0.170547 0.687091
vt 0.191873 0.700333
vt 0.172503 0.769771
vt 0.125826 0.818067
vt 0.100021 0.796474
vt 0.140195 0.736289
vt 0.292856 0.813154
vt 0.263503 0.797946
vt 0.284531 0.763274
vt 0.307880 0.780560
vt 0.204241 0.775377
vt 0.226715 0.724287
vt 0.064427 0.709700
vt 0.063452 0.720051
vt 0.020922 0.728165
vt 0.033845 0.691966
vt 0.118827 0.700827
vt 0.089825 0.645312
vt 0.023735 0.681771
vt 0.075661 0.630163
vt 0.069050 0.781281
vt 0.115760 0.725722
vt 0.148466 0.697726
vt 0.124689 0.623202
vt 0.103463 0.602636
vt 0.198332 0.760985
vt 0.171631 0.756991
vt 0.221195 0.681906
vt 0.273748 0.821568
vt 0.252052 0.805058
vt 0.174702 0.790051
vt 0.143779 0.819396
vt 0.211121 0.790547

# vertex normals
vn -0.866071 0.139143 0.480168
vn -0.188188 0.182667 -0.964996
vn 0.000000 -1.000000 0.000000
vn -0.023676 0.144509 0.989220
vn 0.188581 0.191560 -0.963194
vn -0.282610 0.800351 0.528744
vn 0.247017 0.786047 0.566668
vn 0.247017 0.786047 0.566669
vn 0.364136 0.895305 0.256583
vn -0.376625 0.908497 0.181069
vn -0.848139 -0.056634 0.526738
vn 0.614003 -0.282536 0.737004
vn 0.635155 0.532424 -0.559555
vn -0.442034 0.619318 -0.648884
vn 0.627473 -0.454117 0.632499
vn 0.537085 0.027130 -0.843092
vn 0.204699 -0.976983 -0.060019
vn -0.053709 -0.219255 0.974188
vn 0.246331 -0.672279 -0.698114
vn 0.246331 -0.672279 -0.698113
vn 0.189792 0.210594 -0.958973
vn -0.211583 0.670104 0.711472
vn -0.441346 0.647259 0.621506
vn -0.583150 -0.740151 -0.334832
vn -0.420935 -0.208294 0.882852
vn 0.300248 0.536116 0.788943
vn 0.300248 0.536116 0.788943
vn -0.070976 -0.473247 -0.878066
vn -0.070976 -0.473246 -0.878066
vn 0.302119 0.179037 -0.936307
vn 0.302118 0.179037 -0.936307
vn -0.943055 -0.118185 -0.310934
vn -0.752747 -0.145260 0.642084
vn 0.324666 0.540189 0.776394
vn 0.413888 0.112279 -0.903377
vn 0.413889 0.112279 -0.903377
vn -0.654239 -0.663802 -0.362406
vn -0.817904 0.246014 -0.520106
vn 0.251372 0.258026 0.932864
vn 0.511396 0.008049 -0.859308
vn 0.232105 -0.969459 -0.079219
vn -0.502158 -0.836773 -0.218287
vn 0.158309 0.194156 -0.968112
vn -0.159696 0.183705 -0.969923
vn -0.822553 0.208015 0.529279
vn 0.199718 -0.862225 0.465489
vn 0.190018 0.116217 -0.974878
vn -0.181397 0.043553 -0.982445
vn -0.285509 -0.882176 0.374499
vn 0.185420 0.142506 0.972271
vn 0.697990 0.066668 0.712998
vn -0.166403 0.176217 0.970184
vn -0.833715 0.492139 0.250436
vn -0.184258 0.144833 -0.972148
vn 0.204002 0.123798 -0.971111
vn 0.824327 0.364645 0.433034
vn 0.794764 0.187788 0.577136
vn 0.597133 0.419703 0.683580
vn 0.075225 0.192867 0.978337
vn 0.271973 0.956686 0.103838
vn 0.271974 0.956686 0.103838
vn 0.597245 -0.095506 -0.796352
vn 0.597347 -0.095019 -0.796334
vn 0.597358 -0.094967 -0.796332
vn -0.139686 -0.990095 0.014107
vn 0.726129 0.383351 0.570770
vn 0.385986 -0.810511 0.440553
vn 0.675551 -0.065042 -0.734439
vn -0.315366 0.866233 -0.387536
vn -0.505630 0.122126 0.854063
vn -0.513816 0.098999 0.852169
vn -0.513816 0.098999 0.852169
vn 0.271975 0.956686 0.103839
vn 0.597506 -0.094258 -0.796305
vn -0.389609 -0.804139 0.448960
vn -0.294048 -0.833962 0.466951
vn -0.337441 -0.821607 0.459451
vn 0.338107 0.832315 -0.439245
vn 0.358786 0.932177 -0.048158
vn 0.353458 0.890238 -0.287303
vn -0.930810 0.316313 0.183135
vn -0.831205 0.288379 0.475326
vn -0.793510 0.276973 0.541874
vn -0.289699 -0.835096 0.467643
vn 0.886467 -0.186762 -0.423434
vn 0.886467 -0.186762 -0.423435
vn 0.336786 0.827742 -0.448797
vn -0.744452 0.261856 0.614184
vn 0.172677 -0.945544 0.275914
vn -0.946859 0.300094 0.115769
vn -0.172677 0.945544 -0.275914
vn 0.946859 -0.300094 -0.115769
vn -0.153993 0.497619 0.853617
vn -0.354138 0.911052 -0.211119
vn -0.354138 0.911052 -0.211119
vn -0.354139 0.911051 -0.211119
vn -0.572488 -0.416492 -0.706252
vn -0.572666 -0.415948 -0.706428
vn -0.572651 -0.415994 -0.706414
vn 0.221873 -0.915903 0.334505
vn 0.221873 -0.915903 0.334505
vn -0.770506 0.477268 0.422536
vn -0.325459 -0.655977 0.681007
vn -0.661694 -0.370994 -0.651555
vn 0.249633 0.718880 -0.648764
vn 0.468628 0.454536 0.757486
vn 0.479955 0.431111 0.764059
vn -0.354139 0.911051 -0.211118
vn -0.572901 -0.415225 -0.706663
vn -0.572902 -0.415225 -0.706663
vn 0.221872 -0.915903 0.334505
vn 0.434624 -0.606273 0.665984
vn 0.380449 -0.623115 0.683364
vn 0.339681 -0.634120 0.694629
vn -0.385034 0.638863 -0.666035
vn -0.409341 0.728504 -0.549292
vn -0.429231 0.838607 -0.335410
vn 0.895555 0.444906 0.006306
vn 0.765136 0.525769 0.371664
vn 0.801097 0.516206 0.302943
vn 0.335026 -0.635289 0.695820
vn -0.870975 -0.401032 -0.283858
vn -0.382777 0.631271 -0.674521
vn 0.714601 0.533116 0.452917
vn 0.165203 -0.138211 -0.976527
vn 0.253406 0.715982 -0.650503
vn 0.888824 0.339980 -0.307255
vn 0.630748 -0.765662 -0.126169

# Mesh
g mum_
usemtl initialShadingGroup
f 4/4/1 1/1/1 2/2/1 3/3/1
f 8/8/2 5/5/2 6/6/2 7/7/2
f 9/9/3 10/10/3 4/4/3 3/3/3
f 11/11/4 12/12/4 13/13/4
f 15/15/5 14/14/5 5/5/5 8/8/5
f 12/17/6 16/18/6 17/19/6 7/16/6
f 15/20/7 18/21/8 16/18/7 12/17/7
f 15/20/9 8/22/9 18/21/9
f 8/23/10 7/16/10 17/19/10
f 16/25/11 19/26/11 20/27/11 17/24/11
f 18/28/12 21/29/12 19/26/12 16/25/12
f 21/33/13 18/30/13 8/31/13 22/32/13
f 22/32/14 8/31/14 17/24/14 20/27/14
f 24/35/15 25/36/15 26/37/15 23/34/15
f 28/40/16 25/41/16 24/38/16 27/39/16
f 24/35/17 23/34/17 19/26/17 21/29/17
f 23/34/18 26/37/18 29/42/18 30/43/18
f 27/39/19 24/38/19 21/33/19 22/32/20
f 28/40/21 27/39/21 22/32/21 31/44/21
f 26/37/22 28/46/22 31/45/22 29/42/22
f 28/46/23 26/37/23 25/36/23
f 20/27/24 19/26/24 32/47/24 33/48/24
f 30/43/25 29/42/25 34/49/25 32/47/25
f 29/42/26 31/45/26 35/50/26 34/49/27
f 22/32/28 20/27/28 33/48/29
f 31/44/30 22/32/31 33/48/31 35/51/31
f 39/55/32 36/52/32 37/53/32 38/54/32
f 32/47/33 34/49/33 38/54/33 37/53/33
f 34/49/34 35/50/34 38/54/34
f 35/51/35 33/48/36 36/52/35 39/55/35
f 33/48/37 32/47/37 37/53/37 36/52/37
f 39/55/38 38/54/38 40/56/38
f 38/54/39 35/50/39 40/56/39
f 35/51/40 39/55/40 40/56/40
f 19/26/41 23/34/41 30/43/41
f 32/47/42 19/26/42 30/43/42
f 42/59/43 10/60/43 9/57/43 41/58/43
f 41/58/44 9/57/44 3/3/44 2/2/44
f 13/13/45 12/12/45 7/7/45 6/6/45
f 42/61/46 43/62/46 44/63/46 1/1/46
f 43/65/47 42/59/47 41/58/47 45/64/47
f 45/64/48 41/58/48 2/2/48 46/66/48
f 1/1/49 47/67/49 46/66/49 2/2/49
f 47/67/50 1/1/50 13/13/50
f 10/10/51 42/61/51 1/1/51 4/4/51
f 44/63/52 11/11/52 13/13/52 1/1/52
f 47/67/53 13/13/53 6/6/53 46/66/53
f 5/5/54 45/64/54 46/66/54 6/6/54
f 14/14/55 43/65/55 45/64/55 5/5/55
f 43/62/56 14/68/56 11/11/56 44/63/56
f 11/11/57 14/68/57 15/69/57
f 11/11/58 15/69/58 12/12/58
f 49/71/59 50/72/59 51/73/59 48/70/59
f 54/76/61 55/77/60 52/74/60 53/75/61
f 54/79/63 56/80/64 57/81/62 55/78/62
f 56/80/65 58/82/65 59/83/65 57/81/65
f 61/85/66 62/86/66 63/87/66 60/84/66
f 61/85/67 60/84/67 64/88/67 65/89/67
f 62/91/68 61/85/68 65/89/68 66/90/68
f 63/87/69 62/94/69 66/92/69 67/93/69
f 60/84/70 63/87/70 67/93/70 64/88/70
f 64/88/71 67/93/72 53/95/71 58/96/72
f 66/98/73 54/76/61 53/75/61 67/97/73
f 66/99/74 65/100/74 56/80/64 54/79/63
f 56/80/65 65/100/65 64/101/65 58/82/65
f 59/83/75 58/82/76 68/102/77
f 53/75/78 52/74/79 69/103/80
f 69/104/83 52/74/81 59/83/81 68/102/82
f 58/106/76 49/71/84 48/70/84 68/105/77
f 50/108/86 49/71/85 58/106/85 53/107/86
f 51/73/87 50/111/87 53/109/78 69/110/80
f 48/70/88 51/73/88 69/110/83 68/105/82
f 71/113/89 57/81/89 59/83/89 70/112/89
f 52/74/90 72/114/90 70/112/90 59/83/90
f 55/77/91 73/115/91 72/114/91 52/74/91
f 73/116/92 55/78/92 57/81/92 71/113/92
f 74/117/93 75/118/93 76/119/93 77/120/93
f 81/124/96 78/121/94 79/122/95 80/123/96
f 79/125/97 82/126/97 83/127/98 80/128/99
f 82/126/100 84/129/100 85/130/100 83/127/101
f 86/131/102 87/132/102 88/133/102 89/134/102
f 91/136/103 90/135/103 86/131/103 89/134/103
f 92/138/104 91/136/104 89/134/104 88/137/104
f 93/140/105 92/139/105 88/133/105 87/132/105
f 90/135/106 93/140/106 87/132/106 86/131/106
f 85/141/107 81/124/107 93/140/107 90/135/107
f 93/140/108 81/124/96 80/123/96 92/139/108
f 80/143/99 83/142/98 91/136/109 92/138/110
f 85/141/100 90/135/111 91/136/111 83/142/101
f 84/129/112 94/144/113 85/130/114
f 81/124/115 95/145/116 78/121/117
f 94/144/120 84/129/118 78/121/118 95/145/119
f 94/144/113 74/117/121 77/120/121 85/130/114
f 81/146/122 85/130/122 77/120/122 76/119/122
f 95/145/116 81/124/115 76/119/123 75/118/123
f 94/144/120 95/145/119 75/118/124 74/117/124
f 96/147/125 97/148/125 82/126/125 79/125/125
f 78/121/126 98/149/126 96/150/126 79/122/126
f 84/129/127 99/151/127 98/149/127 78/121/127
f 99/151/128 84/129/128 82/126/128 97/148/128
