# This file uses centimeters as units for non-parametric coordinates.

mtllib statue_dad.mtl
g default
v 12.680068 -0.000000 7.378053
v 12.680068 -0.000000 -7.378053
v -15.956715 44.695952 3.739532
v -8.348714 49.765999 4.872716
v -0.276290 50.646751 5.792249
v -0.276290 50.646751 -4.872716
v 3.564156 58.972339 0.217111
v 8.531531 18.922709 7.378053
v 13.059336 15.248866 7.378053
v 13.183936 20.258462 1.637628
v 6.021322 50.426538 4.356999
v 7.221153 50.218523 -3.880450
v -15.674860 -0.000000 0.000738
v -7.834814 -0.000000 7.378053
v -10.000715 23.699312 7.378053
v -9.795296 16.345920 0.000738
v -1.740016 16.944300 7.378053
v 13.183936 20.258462 -3.916453
v 13.123074 17.811498 -7.378053
v 9.709561 19.995690 -7.378053
v 4.646670 45.814755 -7.378053
v -8.348714 49.765999 -2.582672
v -13.643776 42.168762 -7.378053
v -9.697936 22.164281 -7.378053
v -4.736469 15.151148 -7.378053
v -10.186277 -0.000000 -7.378053
v -13.926878 57.672264 4.068599
v -8.560132 64.396115 6.404423
v -12.650757 67.135819 3.957672
v 3.470183 66.864389 2.415905
v -0.897443 58.363848 -4.872716
v -3.095151 64.385622 -6.070734
v -11.912477 63.603189 -4.872716
v -13.926878 57.672264 -2.582671
v -11.225399 57.815655 -4.872716
v -20.049377 66.750905 1.913743
v -21.452760 66.740560 -2.546066
v -18.289651 70.231207 0.071719
v 9.203830 70.137813 -1.306979
v 5.719358 71.033086 -0.963189
v 9.462427 69.372486 0.375139
v 5.753616 69.651700 1.240639
v 6.633446 26.104759 7.120943
v 11.988142 26.406753 -0.329475
v -9.427827 46.220458 7.044840
v -0.628793 25.966251 7.132692
v 4.172898 36.888987 9.004119
v 14.524588 24.652366 4.818796
v -2.405360 22.918683 11.883899
v -1.250899 48.491775 7.098144
v 9.207784 34.976030 9.580624
v 12.837497 33.780144 3.707739
v 8.803110 50.058559 0.259626
v 7.270323 27.834213 11.172311
v -5.692394 44.579472 11.604139
v -8.712019 46.307904 7.097702
v -4.089593 47.753322 6.580310
v -7.683957 49.212662 5.304110
v -5.549218 45.828002 8.418858
v -11.979102 48.873095 7.897148
v -7.139422 51.958682 11.335383
v -12.251556 51.130957 6.002764
v -9.103316 49.565520 12.039769
v -15.001370 54.978985 8.250379
v -9.810562 56.569942 11.276226
v -13.761953 56.026373 6.198954
v -11.037811 55.362519 12.187655
v -5.447259 48.657236 8.616448
v -7.657255 47.232794 10.161650
v -4.385866 51.836568 8.871106
v -4.360435 51.753035 10.321271
v -4.872502 53.620849 10.403688
v -4.580446 52.882901 11.132370
v 12.151609 24.669620 -0.286733
v 12.900758 21.598412 -2.095107
v 13.078001 21.701383 1.677628
v 13.825099 23.990890 3.310224
v 15.295478 25.642009 -2.838049
v 16.031859 22.293359 -4.459861
v 17.374205 22.062190 1.117939
v 17.079704 25.370554 1.734241
v 18.164981 28.650491 -4.433854
v 18.952331 28.153753 -5.223540
v 21.379234 28.580560 -1.151397
v 20.773653 29.070449 0.430523
v 18.416025 24.712873 3.910470
v 17.997256 26.302391 3.708972
v 19.336371 25.453935 2.314572
v 18.634638 27.094726 2.581134
vt 0.009789 0.014109
vt 0.166819 0.009773
vt 0.009766 0.174569
vt 0.160976 0.189257
vt 0.133324 0.217103
vt 0.075148 0.223546
vt 0.115751 0.233971
vt 0.076454 0.238812
vt 0.103259 0.287664
vt 0.100942 0.269568
vt 0.043659 0.274048
vt 0.060086 0.265408
vt 0.967970 0.527068
vt 0.119385 0.535768
vt 0.935320 0.371053
vt 0.869457 0.403767
vt 0.892872 0.558810
vt 0.825250 0.343890
vt 0.382533 0.266673
vt 0.535059 0.267511
vt 0.400390 0.479488
vt 0.446031 0.199886
vt 0.520054 0.499481
vt 0.642780 0.319364
vt 0.349450 0.183163
vt 0.730993 0.629178
vt 0.332044 0.567173
vt 0.412636 0.643724
vt 0.368593 0.661188
vt 0.455361 0.749236
vt 0.601498 0.848444
vt 0.647746 0.838968
vt 0.602651 0.902621
vt 0.601377 0.887161
vt 0.608881 0.873764
vt 0.613890 0.903697
vt 0.548090 0.861466
vt 0.578146 0.853761
vt 0.212362 0.821810
vt 0.171596 0.829823
vt 0.204520 0.802672
vt 0.973206 0.580366
vt 0.990234 0.666333
vt 0.856266 0.619251
vt 0.902354 0.803669
vt 0.304587 0.878236
vt 0.284681 0.824123
vt 0.301922 0.830453
vt 0.261733 0.895984
vt 0.235858 0.851803
vt 0.317286 0.877588
vt 0.219446 0.905622
vt 0.199324 0.868845
vt 0.228341 0.828306
vt 0.244134 0.827428
vt 0.829182 0.303728
vt 0.903757 0.258206
vt 0.926416 0.291217
vt 0.442120 0.816028
vt 0.463527 0.798983
vt 0.477393 0.839159
vt 0.408284 0.850837
vt 0.473440 0.892584
vt 0.169664 0.875065
vt 0.130577 0.870481
vt 0.111900 0.833416
vt 0.706988 0.215386
vt 0.657146 0.025317
vt 0.852790 0.020003
vt 0.826096 0.214782
vt 0.584413 0.202290
vt 0.546880 0.009766
vt 0.868404 0.163961
vt 0.726101 0.290061
vt 0.908129 0.208296
vt 0.745178 0.335820
vt 0.765913 0.551071
vt 0.716417 0.574817
vt 0.832749 0.447336
vt 0.826749 0.597633
vt 0.739659 0.621099
vt 0.786297 0.598896
vt 0.764596 0.577909
vt 0.725235 0.578459
vt 0.690883 0.718344
vt 0.766057 0.775635
vt 0.722076 0.821461
vt 0.631790 0.804406
vt 0.404986 0.021275
vt 0.500612 0.030972
vt 0.187047 0.215692
vt 0.209341 0.487341
vt 0.165083 0.534218
vt 0.246061 0.551660
vt 0.331827 0.658315
vt 0.226169 0.630791
vt 0.853863 0.905903
vt 0.323178 0.718074
vt 0.156941 0.612220
vt 0.414317 0.775441
vt 0.085385 0.721815
vt 0.115019 0.744803
vt 0.074816 0.705517
vt 0.373953 0.814612
vt 0.969585 0.792582
vt 0.945919 0.810026
vt 0.985175 0.803340
vt 0.957758 0.836869
vt 0.863166 0.905616
vt 0.517454 0.842261
vt 0.500646 0.883464
vt 0.477879 0.948335
vt 0.450314 0.940826
vt 0.391961 0.904926
vt 0.555959 0.831742
vt 0.588204 0.828197
vt 0.548068 0.893531
vt 0.538587 0.954539
vt 0.575033 0.907418
vt 0.604429 0.913737
vt 0.540213 0.974753
vt 0.470592 0.974733
vt 0.407087 0.812018
vt 0.387479 0.827838
vt 0.104711 0.765130
vt 0.079334 0.811050
vt 0.092064 0.766447
vt 0.151636 0.749137
vt 0.080529 0.860593
vt 0.048015 0.841053
vt 0.289562 0.768211
vt 0.319129 0.749136
vt 0.226182 0.806422
vt 0.240668 0.818395
vt 0.227611 0.763772
vt 0.246655 0.793359
vt 0.921553 0.720734
vt 0.968668 0.829223
vt 0.765164 0.924727
vt 0.232394 0.699510
vt 0.695453 0.926887
vt 0.063828 0.367620
vt 0.938164 0.529015
vt 0.404575 0.538895
vt 0.545258 0.631613
vt 0.652279 0.674308
vt 0.613451 0.877787
vt 0.556795 0.963954
vt 0.640765 0.559364
vn 0.000000 0.000000 1.000000
vn 0.000000 0.000000 1.000000
vn 0.000000 0.000000 1.000000
vn 0.000000 0.000000 1.000000
vn 0.000000 0.000000 1.000000
vn 0.000000 0.000000 1.000000
vn 0.000000 0.000000 1.000000
vn 0.000000 0.000000 -1.000000
vn 0.000000 0.000000 -1.000000
vn 0.000000 0.000000 -1.000000
vn 0.000000 0.000000 -1.000000
vn 0.000000 0.000000 -1.000000
vn 0.000000 0.000000 -1.000000
vn 0.000000 0.000000 -1.000000
vn 0.000000 0.000000 -1.000000
vn 0.999691 -0.024864 0.000000
vn 0.999691 -0.024864 0.000000
vn 0.999691 -0.024864 0.000000
vn 0.999691 -0.024864 -0.000000
vn 0.999691 -0.024864 -0.000000
vn 0.999691 -0.024864 -0.000000
vn 0.999691 -0.024864 -0.000000
vn 0.999691 -0.024864 0.000000
vn 0.999691 -0.024864 0.000000
vn 0.999691 -0.024864 0.000000
vn -0.439619 0.562694 0.700079
vn -0.439619 0.562694 0.700079
vn -0.439619 0.562694 0.700079
vn -0.439619 0.562694 0.700079
vn 0.214637 0.433351 0.875293
vn 0.214637 0.433351 0.875293
vn 0.214637 0.433351 0.875293
vn -0.431308 0.854032 0.290866
vn -0.431308 0.854032 0.290866
vn -0.431308 0.854032 0.290866
vn -0.431308 0.854032 0.290866
vn -0.159877 0.545878 0.822470
vn -0.159877 0.545878 0.822469
vn -0.159877 0.545878 0.822470
vn -0.159877 0.545878 0.822470
vn 0.747056 0.060131 -0.662037
vn 0.747056 0.060131 -0.662037
vn 0.747056 0.060131 -0.662036
vn -0.109034 -0.166528 -0.979990
vn -0.109034 -0.166528 -0.979990
vn -0.109034 -0.166528 -0.979990
vn -0.109034 -0.166528 -0.979990
vn -0.817101 -0.576495 0.000000
vn -0.817101 -0.576495 0.000000
vn -0.817101 -0.576495 0.000000
vn -0.817101 -0.576495 0.000000
vn 0.819571 0.316972 0.477318
vn 0.819571 0.316972 0.477318
vn 0.819571 0.316972 0.477318
vn 0.819571 0.316972 0.477318
vn 0.518276 0.638747 0.568676
vn 0.518276 0.638747 0.568676
vn 0.518276 0.638747 0.568676
vn -0.193403 0.019433 0.980927
vn -0.193403 0.019433 0.980927
vn -0.193403 0.019433 0.980927
vn -0.193403 0.019433 0.980927
vn -0.665372 0.239332 0.707107
vn -0.665372 0.239332 0.707107
vn -0.665372 0.239332 0.707107
vn -0.665372 0.239332 0.707107
vn -0.489055 -0.598066 0.634935
vn -0.489056 -0.598066 0.634935
vn -0.489056 -0.598066 0.634935
vn -0.489055 -0.598066 0.634935
vn -0.645255 0.742134 -0.181336
vn -0.645255 0.742134 -0.181336
vn -0.645255 0.742134 -0.181336
vn -0.645255 0.742134 -0.181336
vn 0.699511 0.138722 -0.701028
vn 0.699511 0.138722 -0.701028
vn 0.699511 0.138722 -0.701028
vn 0.699511 0.138722 -0.701028
vn -0.160205 0.503494 -0.849016
vn -0.160205 0.503494 -0.849016
vn -0.160205 0.503494 -0.849016
vn -0.160205 0.503494 -0.849016
vn 0.969613 0.167524 -0.178285
vn 0.969613 0.167524 -0.178285
vn 0.969613 0.167524 -0.178285
vn 0.969613 0.167524 -0.178285
vn 0.000000 0.000000 -1.000000
vn 0.000000 0.000000 -1.000000
vn 0.000000 0.000000 -1.000000
vn -0.000000 0.000000 -1.000000
vn -0.000000 0.000000 -1.000000
vn -0.000000 0.000000 -1.000000
vn 0.046695 0.998877 -0.008028
vn 0.046695 0.998877 -0.008028
vn 0.046695 0.998877 -0.008028
vn 0.046695 0.998877 -0.008028
vn 0.461166 0.720722 -0.517577
vn 0.461166 0.720722 -0.517577
vn 0.461166 0.720722 -0.517577
vn -0.969045 -0.239385 -0.060382
vn -0.969045 -0.239385 -0.060382
vn -0.969045 -0.239385 -0.060382
vn -0.969045 -0.239385 -0.060382
vn -0.770905 0.277291 -0.573424
vn -0.770905 0.277291 -0.573424
vn -0.770905 0.277291 -0.573424
vn -0.770905 0.277291 -0.573424
vn -0.739914 -0.523454 -0.422520
vn -0.739914 -0.523454 -0.422520
vn -0.739914 -0.523454 -0.422520
vn 0.077571 0.726031 0.683273
vn 0.077571 0.726031 0.683273
vn 0.077571 0.726031 0.683273
vn 0.287649 0.131064 0.948726
vn 0.287649 0.131064 0.948726
vn 0.287649 0.131064 0.948726
vn 0.217822 0.861154 0.459312
vn 0.217822 0.861154 0.459312
vn 0.217822 0.861154 0.459312
vn 0.217822 0.861154 0.459312
vn -0.054162 -0.113868 -0.992018
vn -0.054162 -0.113868 -0.992018
vn -0.054162 -0.113868 -0.992018
vn -0.054162 -0.113868 -0.992018
vn -0.009938 0.961889 -0.273259
vn -0.009938 0.961889 -0.273259
vn -0.009938 0.961889 -0.273259
vn -0.132635 0.916382 -0.377692
vn -0.132635 0.916382 -0.377692
vn -0.132635 0.916382 -0.377692
vn -0.803543 0.539457 0.251604
vn -0.803543 0.539457 0.251604
vn -0.803543 0.539457 0.251604
vn -0.577777 -0.407643 -0.707107
vn -0.577777 -0.407643 -0.707107
vn -0.577777 -0.407643 -0.707107
vn -0.352984 0.058544 0.933796
vn -0.352984 0.058544 0.933796
vn -0.352984 0.058544 0.933796
vn -0.352984 0.058544 0.933796
vn -0.559308 -0.461396 -0.688686
vn -0.559308 -0.461396 -0.688686
vn -0.559308 -0.461396 -0.688686
vn -0.800715 -0.590352 0.101684
vn -0.800715 -0.590352 0.101684
vn -0.800715 -0.590352 0.101684
vn -0.800715 -0.590352 0.101684
vn 0.594505 0.762477 -0.255328
vn 0.594505 0.762477 -0.255328
vn 0.594505 0.762477 -0.255328
vn -0.245881 -0.029190 -0.968860
vn -0.245881 -0.029190 -0.968860
vn -0.245881 -0.029190 -0.968860
vn 0.001694 0.598987 -0.800757
vn 0.001694 0.598987 -0.800757
vn 0.001694 0.598987 -0.800757
vn 0.303405 0.132712 -0.943575
vn 0.303405 0.132712 -0.943575
vn 0.303405 0.132712 -0.943574
vn 0.303405 0.132712 -0.943575
vn 0.731653 -0.440562 -0.520182
vn 0.731653 -0.440562 -0.520182
vn 0.731653 -0.440562 -0.520182
vn 0.731653 -0.440562 -0.520182
vn -0.675606 0.648622 0.350494
vn -0.675606 0.648622 0.350494
vn -0.675606 0.648622 0.350494
vn -0.675606 0.648622 0.350494
vn 0.379149 -0.164997 0.910506
vn 0.379149 -0.164997 0.910506
vn 0.379149 -0.164997 0.910506
vn 0.379149 -0.164997 0.910506
vn -0.115275 0.019677 0.993139
vn -0.115275 0.019677 0.993139
vn -0.115275 0.019677 0.993139
vn 0.889047 -0.113018 0.443647
vn 0.889047 -0.113018 0.443648
vn 0.889047 -0.113018 0.443647
vn -0.249055 0.548419 0.798253
vn -0.249055 0.548419 0.798253
vn -0.249055 0.548419 0.798253
vn 0.710109 -0.542025 0.449393
vn 0.710109 -0.542025 0.449393
vn 0.710109 -0.542025 0.449393
vn 0.300546 0.913309 -0.274842
vn 0.300546 0.913309 -0.274843
vn 0.300546 0.913309 -0.274843
vn 0.276897 -0.278975 0.919511
vn 0.276897 -0.278975 0.919511
vn 0.276897 -0.278975 0.919511
vn 0.276897 -0.278975 0.919511
vn -0.999773 -0.008204 -0.019661
vn -0.999773 -0.008204 -0.019661
vn -0.999773 -0.008204 -0.019661
vn 0.272887 0.278814 0.920758
vn 0.272887 0.278814 0.920758
vn 0.272887 0.278814 0.920758
vn 0.860128 -0.240889 0.449613
vn 0.860128 -0.240889 0.449613
vn 0.860128 -0.240889 0.449613
vn 0.860128 -0.240889 0.449613
vn 0.231071 0.950876 -0.206013
vn 0.231071 0.950876 -0.206013
vn 0.231071 0.950876 -0.206013
vn 0.235325 0.949483 0.207617
vn 0.235325 0.949483 0.207617
vn 0.235325 0.949483 0.207617
vn 0.489076 0.358563 0.795133
vn 0.489076 0.358563 0.795133
vn 0.489076 0.358563 0.795133
vn 0.489076 0.358563 0.795133
vn 0.169952 0.639150 0.750069
vn 0.169952 0.639150 0.750069
vn 0.169952 0.639150 0.750069
vn 0.169952 0.639150 0.750069
vn 0.894415 0.131095 -0.427594
vn 0.894414 0.131095 -0.427594
vn 0.894414 0.131095 -0.427594
vn 0.120178 0.992724 -0.007564
vn 0.120178 0.992724 -0.007564
vn 0.120178 0.992724 -0.007564
vn 0.000110 0.288815 0.957385
vn 0.000110 0.288815 0.957385
vn 0.000110 0.288815 0.957385
vn 0.000110 0.288815 0.957385
vn 0.450615 -0.844428 0.289634
vn 0.450615 -0.844428 0.289634
vn 0.450615 -0.844428 0.289634
vn -0.783958 -0.338317 0.520530
vn -0.783958 -0.338317 0.520530
vn -0.783958 -0.338317 0.520530
vn -0.373249 -0.311472 0.873882
vn -0.373249 -0.311472 0.873882
vn -0.373249 -0.311472 0.873882
vn 0.018189 -0.920584 0.390121
vn 0.018189 -0.920584 0.390121
vn 0.018189 -0.920584 0.390121
vn -0.235068 0.243837 0.940897
vn -0.235068 0.243837 0.940897
vn -0.235068 0.243837 0.940897
vn -0.128389 0.553533 0.822871
vn -0.128389 0.553533 0.822871
vn -0.128389 0.553533 0.822871
vn -0.041990 0.923126 0.382198
vn -0.041990 0.923126 0.382198
vn -0.041990 0.923126 0.382198
vn -0.041990 0.923126 0.382198
vn -0.391293 0.829248 0.399045
vn -0.391293 0.829248 0.399045
vn -0.391293 0.829248 0.399045
vn -0.391293 0.829248 0.399045
vn 0.411373 0.902656 -0.126425
vn 0.411373 0.902656 -0.126425
vn 0.411373 0.902656 -0.126425
vn -0.287221 -0.885154 0.366070
vn -0.287221 -0.885154 0.366070
vn -0.287221 -0.885154 0.366070
vn 0.711881 -0.074426 0.698345
vn 0.711881 -0.074426 0.698345
vn 0.711881 -0.074426 0.698345
vn 0.711881 -0.074426 0.698345
vn 0.694873 0.314961 -0.646492
vn 0.694873 0.314961 -0.646492
vn 0.694873 0.314961 -0.646492
vn 0.694873 0.314961 -0.646492
vn -0.825306 -0.316687 -0.467525
vn -0.825306 -0.316687 -0.467525
vn -0.825306 -0.316687 -0.467525
vn -0.825306 -0.316687 -0.467525
vn -0.701977 -0.319132 0.636697
vn -0.701977 -0.319132 0.636696
vn -0.701977 -0.319132 0.636697
vn -0.701977 -0.319132 0.636697
vn 0.322446 0.134694 0.936956
vn 0.322446 0.134694 0.936956
vn 0.322446 0.134694 0.936956
vn 0.322446 0.134694 0.936956
vn -0.423676 -0.484655 -0.765250
vn -0.423676 -0.484655 -0.765250
vn -0.423676 -0.484655 -0.765250
vn -0.423676 -0.484655 -0.765250
vn 0.445615 0.798898 -0.403968
vn 0.445615 0.798898 -0.403968
vn 0.445615 0.798898 -0.403968
vn 0.445615 0.798898 -0.403968
vn 0.963185 0.265830 -0.040123
vn 0.963184 0.265830 -0.040123
vn 0.963184 0.265830 -0.040123
vn 0.963184 0.265830 -0.040123
vn -0.511828 -0.735344 0.444186
vn -0.511828 -0.735344 0.444186
vn -0.511828 -0.735344 0.444186
vn -0.511828 -0.735344 0.444186
vn 0.807276 -0.475737 0.349257
vn 0.807276 -0.475737 0.349257
vn 0.807276 -0.475737 0.349257
vn 0.807276 -0.475737 0.349257
vn -0.621854 0.328055 -0.711110
vn -0.621854 0.328055 -0.711110
vn -0.621854 0.328055 -0.711110
vn -0.621854 0.328055 -0.711110
vn -0.094283 0.455497 0.885230
vn -0.094283 0.455497 0.885230
vn -0.094283 0.455497 0.885230
vn -0.094283 0.455497 0.885230
vn 0.467544 -0.390826 0.792880
vn 0.467544 -0.390826 0.792880
vn 0.467544 -0.390826 0.792880
vn 0.467544 -0.390826 0.792880
vn 0.983809 0.151660 0.095494
vn 0.983809 0.151660 0.095494
vn 0.983809 0.151660 0.095494
vn 0.983809 0.151660 0.095494
vn 0.988191 0.151855 -0.020456
vn 0.988191 0.151855 -0.020456
vn 0.988191 0.151855 -0.020456
vn 0.988191 0.151855 -0.020456
vn 0.905547 0.054732 -0.420700
vn 0.905547 0.054732 -0.420700
vn 0.905547 0.054732 -0.420700
vn 0.905547 0.054732 -0.420700
vn 0.887183 0.053001 -0.458363
vn 0.887183 0.053001 -0.458363
vn 0.887183 0.053001 -0.458363
vn 0.887183 0.053001 -0.458363
vn -0.633025 0.215452 -0.743545
vn -0.633025 0.215452 -0.743545
vn -0.633025 0.215452 -0.743545
vn -0.633025 0.215452 -0.743545
vn 0.798741 -0.520724 -0.301430
vn 0.798741 -0.520724 -0.301430
vn 0.798741 -0.520724 -0.301430
vn 0.798741 -0.520724 -0.301430
vn -0.623467 0.730475 0.278738
vn -0.623467 0.730475 0.278738
vn -0.623467 0.730475 0.278738
vn -0.623467 0.730475 0.278738
vn 0.661866 -0.251791 0.706070
vn 0.661866 -0.251791 0.706070
vn 0.661866 -0.251791 0.706070
vn 0.661866 -0.251791 0.706069
vn -0.637419 0.243161 -0.731143
vn -0.637419 0.243161 -0.731143
vn -0.637419 0.243161 -0.731143
vn -0.637419 0.243161 -0.731143
vn 0.127399 -0.991258 -0.034295
vn 0.127399 -0.991258 -0.034295
vn 0.127399 -0.991258 -0.034295
vn 0.127399 -0.991258 -0.034295
vn 0.770279 0.255419 0.584322
vn 0.770278 0.255419 0.584322
vn 0.770278 0.255419 0.584322
vn 0.770278 0.255419 0.584322
vn -0.219283 0.954140 0.203792
vn -0.219283 0.954140 0.203792
vn -0.219283 0.954140 0.203792
vn -0.219283 0.954140 0.203792
vn 0.079642 -0.680937 0.727999
vn 0.079642 -0.680937 0.727999
vn 0.079642 -0.680937 0.727999
vn 0.079642 -0.680937 0.727999
vn -0.142649 0.087399 0.985907
vn -0.142649 0.087399 0.985907
vn -0.142649 0.087399 0.985907
vn 0.810703 -0.544711 0.214591
vn 0.810703 -0.544711 0.214591
vn 0.810704 -0.544711 0.214591
vn 0.235646 0.216443 -0.947430
vn 0.235646 0.216443 -0.947430
vn 0.235646 0.216443 -0.947430
vn 0.235646 0.216443 -0.947430
vn -0.551555 0.823572 -0.132350
vn -0.551555 0.823572 -0.132350
vn -0.551555 0.823572 -0.132350
vn -0.551555 0.823572 -0.132350
vn 0.139910 0.564375 -0.813576
vn 0.139910 0.564375 -0.813576
vn 0.139910 0.564375 -0.813576
vn 0.908048 -0.418866 0.000000
vn 0.908048 -0.418866 0.000000
vn 0.908048 -0.418866 0.000000
vn -0.194832 0.857087 0.476910
vn -0.194832 0.857087 0.476910
vn -0.194832 0.857087 0.476910
vn -0.208331 -0.168414 0.963449
vn -0.208331 -0.168414 0.963449
vn -0.208331 -0.168414 0.963449
s off
g dad
usemtl initialShadingGroup
f 17/67/1 14/68/2 1/69/3 8/70/4
f 1/69/5 9/73/6 8/70/7
f 2/2/8 26/89/9 25/25/10 19/4/11
f 20/91/12 19/4/13 25/25/14 24/19/15
f 1/1/16 2/2/17 9/3/18
f 18/5/19 10/6/20 9/3/21 19/4/22
f 2/2/23 19/4/24 9/3/25
f 4/26/26 3/149/27 45/78/28 58/81/29
f 11/17/30 5/44/31 50/80/32
f 65/121/33 66/122/34 64/112/35 67/118/36
f 50/80/37 5/44/38 4/26/39 58/81/40
f 31/96/41 7/99/42 6/94/43
f 22/27/44 35/95/45 31/96/46 6/94/47
f 27/28/48 34/29/49 22/27/50 4/144/51
f 51/16/52 52/15/53 53/143/54 11/17/55
f 8/70/56 9/73/57 10/75/58
f 45/78/59 3/149/60 15/24/61 46/76/62
f 16/71/63 13/72/64 14/68/65 17/67/66
f 15/24/67 16/71/68 17/67/69 49/74/70
f 4/26/71 22/146/72 23/145/73 3/149/74
f 18/5/75 20/91/76 21/92/77 12/93/78
f 22/27/79 6/94/80 21/92/81 23/21/82
f 44/9/83 18/5/84 12/93/85 53/14/86
f 20/91/87 24/19/88 21/92/89
f 21/92/90 24/19/91 23/21/92
f 11/17/93 12/13/94 6/42/95 5/44/96
f 18/5/97 19/4/98 20/91/99
f 23/21/100 24/19/101 15/20/102 3/23/103
f 16/22/104 25/25/105 26/89/106 13/90/107
f 16/22/108 24/19/109 25/25/110
f 29/87/111 28/86/112 30/45/113
f 30/45/114 28/86/115 5/44/116
f 42/106/117 41/105/118 39/107/119 40/138/120
f 32/140/121 31/96/122 35/95/123 33/98/124
f 30/45/125 32/97/126 29/87/127
f 29/87/128 32/97/129 33/139/130
f 37/31/131 36/88/132 38/32/133
f 35/95/134 22/27/135 34/29/136
f 29/87/137 36/88/138 27/85/139 28/86/140
f 35/95/141 34/29/142 37/100/143
f 34/29/144 27/28/145 36/30/146 37/100/147
f 29/87/148 33/141/149 38/32/150
f 35/95/151 37/100/152 33/98/153
f 33/98/154 37/100/155 38/104/156
f 39/101/157 31/96/158 32/140/159 40/102/160
f 7/99/161 31/96/162 39/101/163 41/103/164
f 42/106/165 40/108/166 32/109/167 30/45/168
f 30/45/169 7/137/170 41/105/171 42/106/172
f 4/26/173 5/44/174 27/85/175
f 30/45/176 5/44/177 7/137/178
f 29/87/179 38/32/180 36/88/181
f 10/75/182 48/57/183 8/70/184
f 83/51/185 82/46/186 84/48/187
f 49/74/188 17/67/189 8/70/190 48/57/191
f 24/19/192 16/22/193 15/20/194
f 50/80/195 47/79/196 11/17/197
f 52/15/198 51/16/199 54/18/200 44/58/201
f 82/46/202 85/47/203 84/48/204
f 43/56/205 48/57/206 44/58/207
f 47/79/208 50/80/209 55/77/210 54/18/211
f 49/74/212 48/57/213 43/56/214 46/76/215
f 44/9/216 53/14/217 52/142/218
f 12/13/219 11/17/220 53/143/221
f 51/16/222 11/17/223 47/79/224 54/18/225
f 43/56/226 44/58/227 54/18/228
f 45/78/229 46/76/230 55/77/231
f 54/18/232 55/77/233 46/76/234
f 54/18/235 46/76/236 43/56/237
f 50/80/238 58/81/239 57/82/240
f 58/81/241 45/78/242 56/84/243
f 56/84/244 45/78/245 55/77/246 59/83/247
f 55/77/248 50/80/249 57/82/250 59/83/251
f 68/59/252 57/60/253 58/61/254
f 56/110/255 59/115/256 69/37/257
f 59/115/258 57/116/259 68/38/260 69/37/261
f 65/114/262 61/62/263 62/63/264 66/113/265
f 62/63/266 60/111/267 64/112/268 66/113/269
f 60/111/270 63/117/271 67/118/272 64/112/273
f 67/118/274 63/117/275 61/119/276 65/148/277
f 58/61/278 56/110/279 60/111/280 62/63/281
f 61/62/282 68/59/283 58/61/284 62/63/285
f 73/33/286 71/34/287 70/147/288 72/36/289
f 56/110/290 69/37/291 63/117/292 60/111/293
f 71/34/294 69/37/295 68/38/296 70/35/297
f 70/123/298 68/59/299 61/62/300 72/124/301
f 61/119/302 63/117/303 73/33/304 72/120/305
f 63/117/306 69/37/307 71/34/308 73/33/309
f 18/5/310 44/9/311 74/10/312 75/7/313
f 10/6/314 18/5/315 75/7/316 76/8/317
f 74/10/318 44/9/319 48/11/320 77/12/321
f 48/11/322 10/6/323 76/8/324 77/12/325
f 83/125/326 79/66/327 78/126/328 82/127/329
f 80/40/330 79/66/331 83/125/332 84/128/333
f 82/46/334 78/49/335 81/50/336 85/47/337
f 81/131/338 80/132/339 84/48/340 85/47/341
f 75/129/342 74/130/343 78/126/344 79/66/345
f 76/64/346 75/65/347 79/66/348 80/40/349
f 87/54/350 86/39/351 88/133/352 89/134/353
f 78/49/354 74/52/355 77/53/356 81/50/357
f 86/39/358 77/53/359 76/64/360 80/40/361
f 77/53/362 86/39/363 87/54/364
f 86/39/365 80/40/366 88/41/367
f 88/133/368 80/135/369 81/136/370 89/134/371
f 81/50/372 77/53/373 87/54/374 89/55/375
f 12/93/376 21/92/377 6/94/378
f 6/42/379 7/43/380 5/44/381
f 49/74/382 46/76/383 15/24/384
f 28/86/385 27/85/386 5/44/387
