# This file uses centimeters as units for non-parametric coordinates.

mtllib vase_tri.mtl
g default
v -5.793957 -0.040117 -9.667839
v -6.136726 0.748729 -10.261528
v -6.136727 0.748729 0.000000
v -5.793957 -0.040117 0.000000
v -5.793958 -0.040117 9.667836
v -6.136728 0.748729 10.261528
v 2.578632 -0.040117 4.833918
v 2.750017 0.748729 5.130764
v 11.636763 0.748729 0.000001
v 10.951221 -0.040117 0.000001
v 2.578633 -0.040117 -4.833918
v 2.750018 0.748729 -5.130764
v -1.550750 15.411317 -2.705300
v -2.063727 14.770818 -3.422662
v -1.550750 15.411317 0.000001
v -2.063727 14.770818 0.000001
v -1.550750 15.411317 2.705301
v -2.063728 14.770818 3.422663
v 0.792107 15.411317 1.352651
v 0.900384 14.770818 1.711331
v 3.134965 15.411317 0.000001
v 3.864496 14.770818 0.000001
v 0.792107 15.411317 -1.352650
v 0.900384 14.770818 -1.711330
v 0.760804 15.411317 1.288339
v -0.760805 15.411317 1.288338
v 1.462297 15.411317 0.000002
v -1.462298 15.411317 0.000001
v 0.760804 15.411317 -1.288337
v -0.760805 15.411317 -1.288335
v 0.760804 17.711317 1.288339
v -0.760806 17.711317 1.288338
v 1.462297 17.711317 0.000001
v -1.462298 17.711317 0.000001
v 0.760804 17.711317 -1.288338
v -0.760805 17.711317 -1.288336
v -1.447505 17.711315 -2.426791
v 1.447503 17.711315 -2.426784
v -2.768876 17.711315 0.000001
v 2.768876 17.711315 0.000002
v -1.447503 17.711317 2.426792
v 1.447504 17.711317 2.426789
v -1.447505 19.211315 -2.426791
v 1.447503 19.211315 -2.426785
v -2.768876 19.211315 -0.000001
v 2.768876 19.211315 0.000001
v -1.447503 19.211319 2.426791
v 1.447504 19.211319 2.426786
v -0.691645 19.211315 -1.155812
v 0.691643 19.211315 -1.155811
v -1.320977 19.211315 -0.000001
v 1.320976 19.211315 0.000001
v -0.691644 19.211319 1.155812
v 0.691644 19.211319 1.155812
v -0.691645 12.991582 -1.155812
v 0.691643 12.991582 -1.155811
v -1.320977 12.991582 -0.000001
v 1.320976 12.991582 0.000001
v -0.691644 12.991587 1.155812
v 0.691644 12.991587 1.155812
vt 0.743257 0.501723
vt 0.666092 0.501723
vt 0.253552 0.507103
vt 0.256743 0.501723
vt 0.333908 0.501723
vt 0.377274 0.250000
vt 0.377274 0.462568
vt 0.384374 0.450270
vt 0.561363 0.356284
vt 0.557813 0.350135
vt 0.745453 0.250000
vt 0.588928 0.501723
vt 0.384374 0.250000
vt 0.384374 0.049730
vt 0.557813 0.149865
vt 0.731252 0.250000
vt 0.383332 0.750000
vt 0.458333 0.750000
vt 0.458333 0.750000
vt 0.458333 0.750000
vt 0.495834 0.750000
vt 0.533334 0.750000
vt 0.420833 0.750000
vt 0.335701 0.507103
vt 0.373258 0.746516
vt 0.500000 0.507103
vt 0.457753 0.746516
vt 0.664299 0.507103
vt 0.542247 0.746516
vt 0.415505 0.746516
vt 0.417851 0.507103
vt 0.584495 0.746516
vt 0.746448 0.507103
vt 0.626742 0.746516
vt 0.500000 0.746516
vt 0.582150 0.507103
vt 0.458333 0.750000
vt 0.495834 0.750000
vt 0.533334 0.750000
vt 0.420833 0.750000
vt 0.458333 0.750000
vt 0.383332 0.750000
vt 0.458333 0.750000
vt 0.495834 0.750000
vt 0.533334 0.750000
vt 0.420833 0.750000
vt 0.458333 0.750000
vt 0.383332 0.750000
vt 0.458332 0.750000
vt 0.495836 0.750000
vt 0.533218 0.750000
vt 0.420845 0.750000
vt 0.458323 0.750000
vt 0.383428 0.750000
vt 0.458333 0.750000
vt 0.495834 0.750000
vt 0.533334 0.750000
vt 0.420833 0.750000
vt 0.458333 0.750000
vt 0.383332 0.750000
vt 0.458333 0.750000
vt 0.495834 0.750000
vt 0.533334 0.750000
vt 0.420833 0.750000
vt 0.458333 0.750000
vt 0.383332 0.750000
vt 0.458333 0.750000
vt 0.495834 0.750000
vt 0.533334 0.750000
vt 0.420833 0.750000
vt 0.458333 0.750000
vt 0.383332 0.750000
vt 0.000000 0.000000
vt 1.000000 0.000000
vt 1.305861 2.346157
vt -0.284703 2.335057
vt 0.000000 0.000000
vt 1.000000 0.000000
vt 1.301761 2.371123
vt -0.273447 2.360328
vt 0.000000 0.000000
vt 1.000000 0.000000
vt 1.294843 2.371801
vt -0.279816 2.359622
vt 0.000000 0.000000
vt 1.000000 0.000000
vt 1.273447 2.360326
vt -0.301762 2.371121
vt 0.000000 0.000000
vt 1.000000 0.000000
vt 1.284704 2.335060
vt -0.305860 2.346157
vt 0.000000 0.000000
vt 1.000000 0.000000
vt 1.301761 2.371122
vt -0.273451 2.360333
vn -0.084570 -0.985592 -0.146479
vn -0.456051 0.427936 -0.780313
vn 0.487987 0.217887 -0.845218
vn 0.046388 -0.995687 -0.080347
vn -0.092777 -0.995687 -0.000000
vn -0.973358 0.229292 -0.000000
vn -0.084570 -0.985592 0.146479
vn -0.456051 0.427936 0.780313
vn 0.046388 -0.995687 0.080347
vn 0.487987 0.217887 0.845218
vn 0.169140 -0.985592 0.000000
vn 0.907924 0.419135 0.000000
vn -0.243378 0.851746 -0.464001
vn -0.431954 0.497931 -0.751984
vn -0.957641 0.287965 -0.000000
vn -0.588337 0.808616 -0.000000
vn 0.325203 0.759587 -0.563267
vn 0.481105 0.272309 -0.833298
vn -0.431954 0.497931 0.751984
vn -0.243378 0.851746 0.464000
vn 0.481105 0.272309 0.833298
vn 0.325203 0.759587 0.563268
vn 0.872734 0.488197 0.000000
vn 0.577454 0.816423 0.000001
vn -0.487147 0.207670 0.848270
vn 0.487146 0.207670 0.848270
vn 0.976465 0.215675 -0.000000
vn -0.976465 0.215675 0.000001
vn 0.487146 0.207670 -0.848270
vn -0.487146 0.207670 -0.848270
vn 0.442476 0.470377 0.763519
vn -0.444516 0.462664 0.767038
vn 0.886507 0.462715 -0.000000
vn -0.894286 0.447496 -0.000000
vn 0.442476 0.470378 -0.763518
vn -0.444516 0.462664 -0.767038
vn 0.333694 -0.746385 0.575810
vn -0.333695 -0.746385 0.575810
vn 0.679725 -0.733467 0.000000
vn -0.679724 -0.733468 -0.000000
vn 0.333694 -0.746385 -0.575810
vn -0.333695 -0.746385 -0.575810
vn 0.455585 -0.407302 -0.791547
vn -0.455584 -0.407302 -0.791548
vn -0.449795 0.432389 -0.781488
vn 0.449795 0.432390 -0.781488
vn -0.910176 -0.414222 0.000001
vn -0.899289 0.437355 -0.000000
vn 0.910176 -0.414222 0.000000
vn 0.899289 0.437355 0.000000
vn -0.455585 -0.407300 0.791548
vn -0.449795 0.432390 0.781488
vn 0.455585 -0.407301 0.791548
vn 0.449795 0.432390 0.781488
vn 0.000000 1.000000 0.000001
vn 0.000000 1.000000 0.000001
vn -0.000000 1.000000 -0.000001
vn 0.000000 1.000000 -0.000001
vn -0.000000 1.000000 -0.000001
vn 0.000000 1.000000 0.000000
vn -0.498004 0.000000 0.867175
vn 0.498003 0.000000 0.867176
vn 1.000000 0.000000 -0.000001
vn -1.000000 0.000000 0.000000
vn 0.498003 0.000000 -0.867176
vn -0.498003 0.000000 -0.867176
s 1
g vase_tri
usemtl initialShadingGroup
f 1/1/1 2/33/2 12/28/3 11/2/4
f 2/3/2 1/4/1 4/5/5 3/24/6
f 3/6/6 4/13/5 5/8/7 6/7/8
f 6/7/8 5/8/7 7/10/9 8/9/10
f 8/9/10 7/10/9 10/16/11 9/11/12
f 9/36/12 10/12/11 11/2/4 12/28/3
f 4/13/5 10/16/11 7/10/9 5/8/7
f 1/14/1 11/15/4 10/16/11 4/13/5
f 13/17/13 14/25/14 16/30/15 15/23/16
f 14/25/14 13/17/13 23/19/17 24/18/18
f 15/23/16 16/30/15 18/27/19 17/20/20
f 17/20/20 18/27/19 20/35/21 19/21/22
f 19/21/22 20/35/21 22/29/23 21/22/24
f 21/22/24 22/29/23 24/18/18 23/19/17
s 3
f 56/67/25 55/68/26 57/69/27 58/70/28
f 58/70/28 57/69/27 59/71/29 60/72/30
s 1
f 2/3/2 3/24/6 16/30/15 14/25/14
f 6/31/8 8/26/10 20/35/21 18/27/19
f 9/36/12 12/28/3 24/32/18 22/29/23
f 16/30/15 3/24/6 6/31/8 18/27/19
f 24/32/18 12/28/3 2/33/2 14/34/14
f 20/35/21 8/26/10 9/36/12 22/29/23
f 17/20/20 19/21/22 25/38/31 26/37/32
f 19/21/22 21/22/24 27/39/33 25/38/31
f 15/23/16 17/20/20 26/37/32 28/40/34
f 21/22/24 23/19/17 29/41/35 27/39/33
f 23/19/17 13/17/13 30/42/36 29/41/35
f 13/17/13 15/23/16 28/40/34 30/42/36
f 26/37/32 25/38/31 31/44/37 32/43/38
f 25/38/31 27/39/33 33/45/39 31/44/37
f 28/40/34 26/37/32 32/43/38 34/46/40
f 27/39/33 29/41/35 35/47/41 33/45/39
f 29/41/35 30/42/36 36/48/42 35/47/41
f 30/42/36 28/40/34 34/46/40 36/48/42
f 38/49/43 37/50/44 43/56/45 44/55/46
f 37/50/44 39/51/47 45/57/48 43/56/45
f 40/52/49 38/49/43 44/55/46 46/58/50
f 39/51/47 41/53/51 47/59/52 45/57/48
f 41/53/51 42/54/53 48/60/54 47/59/52
f 42/54/53 40/52/49 46/58/50 48/60/54
f 44/55/46 43/56/45 49/62/55 50/61/56
f 43/56/45 45/57/48 51/63/57 49/62/55
f 46/58/50 44/55/46 50/61/56 52/64/58
f 45/57/48 47/59/52 53/65/59 51/63/57
f 47/59/52 48/60/54 54/66/60 53/65/59
f 48/60/54 46/58/50 52/64/58 54/66/60
s 3
f 50/61/61 49/62/62 55/68/26 56/67/25
f 49/62/62 51/63/63 57/69/27 55/68/26
f 52/64/64 50/61/61 56/67/25 58/70/28
f 51/63/63 53/65/65 59/71/29 57/69/27
f 53/65/65 54/66/66 60/72/30 59/71/29
f 54/66/66 52/64/64 58/70/28 60/72/30
s 1
f 32/73/38 31/74/37 42/75/53 41/76/51
f 31/77/37 33/78/39 40/79/49 42/80/53
f 34/81/40 32/82/38 41/83/51 39/84/47
f 33/85/39 35/86/41 38/87/43 40/88/49
f 35/89/41 36/90/42 37/91/44 38/92/43
f 36/93/42 34/94/40 39/95/47 37/96/44
